<?xml version="1.0" encoding="UTF-8"?>
<svg id="Camada_1" data-name="Camada 1" xmlns="http://www.w3.org/2000/svg" viewBox="0 0 676.25 383.75">
  <defs>
    <style>
      .cls-1, .cls-2, .cls-3, .cls-4, .cls-5, .cls-6, .cls-7, .cls-8, .cls-9, .cls-10, .cls-11, .cls-12, .cls-13, .cls-14, .cls-15, .cls-16, .cls-17, .cls-18, .cls-19, .cls-20, .cls-21, .cls-22, .cls-23 {
        stroke: #3f4241;
      }

      .cls-1, .cls-2, .cls-3, .cls-5, .cls-6, .cls-7, .cls-8, .cls-9, .cls-10, .cls-11, .cls-12, .cls-13, .cls-14, .cls-15, .cls-16, .cls-17, .cls-18, .cls-19, .cls-21, .cls-23 {
        stroke-linecap: round;
        stroke-linejoin: round;
      }

      .cls-1, .cls-24, .cls-13 {
        fill: #5a9a91;
      }

      .cls-2, .cls-25, .cls-16 {
        fill: #e9ead0;
      }

      .cls-3 {
        fill: #7d378f;
      }

      .cls-3, .cls-5, .cls-6, .cls-7, .cls-8, .cls-9, .cls-10, .cls-11, .cls-12, .cls-13, .cls-14, .cls-15, .cls-16, .cls-17, .cls-18, .cls-19, .cls-23 {
        stroke-width: 4px;
      }

      .cls-26, .cls-17 {
        fill: #fff;
      }

      .cls-27 {
        fill: #f2bc4a;
      }

      .cls-28, .cls-15 {
        fill: #f0b955;
      }

      .cls-29 {
        fill: #7ddbb0;
      }

      .cls-30 {
        fill: #819662;
      }

      .cls-31, .cls-4, .cls-20, .cls-22 {
        fill: #a9cdde;
      }

      .cls-32 {
        fill: #b23d14;
      }

      .cls-33, .cls-7 {
        fill: #d6eaf2;
      }

      .cls-34 {
        fill: #d1dfe3;
      }

      .cls-35 {
        fill: #d1da56;
      }

      .cls-36 {
        fill: #d1d85b;
      }

      .cls-37, .cls-8 {
        fill: #d3aa84;
      }

      .cls-38, .cls-10 {
        fill: #d7d8c8;
      }

      .cls-39 {
        fill: #3f4241;
      }

      .cls-40 {
        fill: #93bc57;
      }

      .cls-4 {
        stroke-width: 2px;
      }

      .cls-4, .cls-20, .cls-22 {
        stroke-miterlimit: 10;
      }

      .cls-5 {
        fill: #b0d6e2;
      }

      .cls-6 {
        fill: #adc390;
      }

      .cls-9 {
        fill: #dac0e2;
      }

      .cls-11 {
        fill: #9aedcf;
      }

      .cls-12 {
        fill: #71acc6;
      }

      .cls-14 {
        fill: #efc684;
      }

      .cls-18 {
        fill: #f4e8d3;
      }

      .cls-19 {
        fill: none;
      }

      .cls-21 {
        fill: #aac5ce;
        stroke-width: 3px;
      }

      .cls-22 {
        stroke-width: 6px;
      }

      .cls-23 {
        fill: #f4d39f;
      }
    </style>
  </defs>
  <g>
    <g>
      <g id="mQ8p82">
        <g>
          <path class="cls-39" d="m576.44,154.21c-.96-2.59-2.5-4.64-4.39-6.12-2.95-2.31-6.77-3.24-10.64-2.67-3,.44-5.72,1.62-8.23,3.29-1.04.69-2.03,1.46-3.08,2.22-.12-.09-.27-.2-.41-.32-1.9-1.55-3.93-2.89-6.19-3.84-.61-.26-1.23-.49-1.86-.68h0c-2.45-.79-4.97-1.06-7.58-.54-5.1,1.02-8.39,4.12-10.06,8.97-1.44,4.2-1.2,8.45-.07,12.68,1.4,5.24,4.05,9.85,7.24,14.18.82,1.11,1.68,2.19,2.57,3.24,3.32,3.96,7.08,7.51,11.1,10.8,1.43,1.18,2.91,2.3,4.39,3.43.91.7,1.42.68,2.32.01.59-.44,1.17-.88,1.75-1.33,6-4.65,11.51-9.8,16.07-15.91,3.12-4.16,5.7-8.62,7.15-13.66,0-.02,0-.04.02-.06,1.3-4.57,1.58-9.17-.1-13.69Zm-2.06,8.21c-.69,6.65-3.64,12.33-7.54,17.6-4.24,5.73-9.44,10.51-15.03,14.88-.46.36-.93.71-1.39,1.06-.03.02-.07.03-.16.07-7.44-5.68-14.27-11.91-19.23-19.95-2.16-3.5-3.82-7.21-4.59-11.28-.63-3.28-.75-6.56.51-9.74,1.42-3.6,4.02-5.87,7.85-6.57,2.73-.51,5.33.11,7.82,1.24,2.24,1.02,4.21,2.44,6.01,4.11,1.02.94,1.71.95,2.74.02,2.49-2.24,5.22-4.09,8.49-5.01,3.6-1.01,7.01-.68,10.11,1.57,1.42,1.04,2.45,2.42,3.2,4,1.2,2.55,1.5,5.22,1.21,8Z"/>
          <path class="cls-39" d="m543.61,153.11c-.14.73-.85,1.25-1.64,1.1-1.34-.24-2.68-.4-4.02-.09-3.29.77-5.16,2.93-5.94,6.13-.47,1.88-.41,3.78-.05,5.68.04.26.1.52.09.78,0,.73-.69,1.44-1.41,1.53-.61.07-1.36-.49-1.48-1.22-.2-1.22-.32-2.45-.48-3.67.11-3.01.72-5.83,2.6-8.24,2.45-3.14,5.72-4.39,9.65-4.02.54.05,1.08.13,1.6.25.82.2,1.24.93,1.08,1.77Z"/>
          <path class="cls-39" d="m567.73,173.67c.03.43-.09.93-.3,1.31-1.61,2.97-3.62,5.66-5.95,8.09-1.67,1.74-3.46,3.37-5.21,5.03-.27.25-.66.37-1,.55-.69-.11-1.13-.43-1.36-.99-.25-.59-.18-1.16.28-1.62.5-.5,1.05-.96,1.57-1.44,3.57-3.3,6.78-6.9,9.12-11.2.35-.63.88-.97,1.62-.88.57.07,1.17.54,1.23,1.15Z"/>
        </g>
      </g>
      <path class="cls-22" d="m572.05,148.09c-2.95-2.31-6.77-3.24-10.64-2.67-3,.44-5.72,1.62-8.23,3.29-1.04.69-2.03,1.46-3.08,2.22-.12-.09-.27-.2-.41-.32-1.9-1.55-3.93-2.89-6.19-3.84-.61-.26-1.23-.49-1.86-.68h0c-4.43-10.28-8.87-20.55-13.31-30.82-2.25-5.21-4.54-10.48-8.04-14.95-5.12-6.52-12.68-10.96-20.75-12.85-1.81-.42-3.65-.72-5.5-.99,3.34-3.9,6.04-8.21,7.02-13.19.4-2.02.49-4.06.32-6.09h59.7c2.03,4.64,4.08,9.26,6.36,13.76.73,1.45,1.49,2.9,2.28,4.32.12.22.24.44.37.66.42.77.86,1.53,1.31,2.29,3.18,5.37,6.83,10.45,10.79,15.27.05,4.71.58,9.51.93,14.19.7,9.21-4.71,22.56-11.07,30.4Z"/>
      <path class="cls-4" d="m603.93,67.2c-.31.26-.63.52-.95.77-.33.28-.67.55-1.01.82-2.03,1.64-4.06,3.27-6,4.96-.33.27-.65.56-.97.85-.32.28-.64.57-.95.86-.32.3-.64.61-.96.9-.3.29-.59.58-.87.87-.33.33-.65.66-.97.99-.26.28-.52.56-.77.85-.29.31-.57.63-.83.95-.23.27-.45.53-.66.8-.04.05-.09.11-.13.17-.26.33-.52.66-.76,1-.22.3-.44.6-.64.9-.03.04-.05.08-.08.12-.24.35-.47.7-.68,1.06-.21.33-.41.67-.61,1.02-.01.02-.02.04-.03.06-.21.36-.4.74-.59,1.12-.19.37-.38.76-.55,1.15-2.25,5.05-2.82,10.51-2.73,16.08-3.96-4.82-7.61-9.9-10.79-15.27-.45-.76-.89-1.52-1.31-2.29-.13-.22-.25-.44-.37-.66-.79-1.42-1.55-2.87-2.28-4.32-2.28-4.5-4.33-9.12-6.36-13.76h42.85Z"/>
      <path class="cls-7" d="m603.93,67.2h22.3v77.35s-.03.06-.06.09c-.16.27-.32.53-.49.79-.23.36-.47.71-.71,1.06-9.9-10.56-21-19.93-31.19-30.22-4.04-4.08-7.95-8.32-11.59-12.77-.09-5.57.48-11.03,2.73-16.08.17-.39.36-.77.55-1.15.19-.38.38-.75.59-1.12,0-.02.02-.04.03-.06.2-.35.4-.69.61-1.02.22-.36.45-.71.68-1.06.03-.04.05-.08.08-.12.21-.3.42-.61.64-.9.25-.34.5-.67.76-1,.04-.06.09-.12.13-.17.22-.27.44-.54.66-.8.27-.32.55-.64.83-.95.25-.29.51-.57.77-.85.32-.33.64-.66.97-.99.28-.29.58-.58.87-.87.32-.29.64-.6.96-.9.32-.29.63-.57.95-.86.32-.28.64-.57.97-.85,1.94-1.69,3.97-3.32,6-4.96.34-.27.68-.54,1.01-.82.32-.25.64-.51.95-.77Z"/>
      <path class="cls-21" d="m543.5,146.77c-2.45-.78-6.83-1.74-9.44-1.22-5.1,1.02-8.39,4.12-10.06,8.97-1.44,4.2-1.2,8.45-.07,12.68,1.4,5.24,4.05,9.85,7.24,14.18.82,1.11,1.68,1.19,2.57,2.24-14.81-8.11-21.66-15.41-38.55-18.93-6.22-1.29-12.67-1.98-18.44-4.66-.41-.19-.81-.38-1.2-.59-.33-.17-.66-.35-.98-.54-.06-.04-.13-.07-.19-.11v-55.52c.43-.08.86-.18,1.28-.3.27-.07.54-.15.8-.24.13-.04.26-.08.38-.12.21-.07.41-.15.62-.23,3.83-1.49,6.97-4.32,9.97-7.14,2.28-2.13,5.6-5.88,7.64-8.27,1.85.27,3.69-1.43,5.5-1.01,8.07,1.89,15.63,6.33,20.75,12.85,3.5,4.47,6.33,12.96,8.58,18.17,4.44,10.27,9.17,19.51,13.6,29.78Z"/>
      <path class="cls-20" d="m494.04,86.48c-2.04,2.39-4.33,4.63-6.61,6.76-3,2.82-6.14,5.65-9.97,7.14-.21.08-.41.16-.62.23-.12.04-.25.08-.38.12-.26.09-.53.17-.8.24-.42.12-.85.22-1.28.3v-20.33c1.13.77,2.33,1.45,3.61,2.03,5.02,2.27,10.57,2.73,16.05,3.51Z"/>
      <path class="cls-18" d="m626.23,246.47v67.36l-54.32-83.62c3.08-1.27,6.11-2.67,9.1-4.18,2.52-1.27,5.06-2.52,7.57-3.81l37.65,24.25Z"/>
      <path class="cls-30" d="m626.23,144.55v101.92l-37.65-24.25c1.36-.7,2.69-1.47,4.03-2.21,2.36-1.31,4.75-2.58,7.07-3.96,3.91-2.33,4.97-6.91,2.58-10.78-2.31-3.73-6.67-4.86-10.47-2.65-4.23,2.46-8.41,5-12.63,7.48-3.89,2.29-7.83,4.51-12.11,6.02-1.18.41-2.38.76-3.57,1.11l-.75-1.16c.04-.2.07-.39.09-.59.01-.08.02-.17.02-.25.02-.11.02-.21.02-.32v-.05c0-.11,0-.23-.01-.34,0-.11-.01-.22-.02-.32,0-.04-.01-.07-.01-.11-.02-.14-.04-.3-.07-.44-.04-.21-.09-.41-.15-.61,0-.04-.01-.07-.03-.11-.04-.15-.09-.3-.15-.44-.07-.19-.15-.37-.24-.54-.12-.23-.25-.45-.39-.65-.01-.01-.02-.01-.02-.01-.1-.13-.2-.26-.31-.39-.2-.23-.41-.44-.65-.62-.07-.06-.14-.12-.22-.17-.4-.31-.85-.56-1.34-.77-.26-.12-.54-.22-.83-.31-.11-.03-.22-.07-.33-.11h-.01c-2.18-.68-4.34-1.4-6.53-2.05-.19-.06-.39-.12-.58-.18-1.29-.38-2.57-.79-3.85-1.21-3.07-1-6.14-2.02-9.31-2.69-3.01-.63-5.96-.5-8.9.32-3.07.84-5.89,2.29-8.74,3.65-1.12.53-2.23,1.06-3.35,1.59-.15-.19-.26-.34-.38-.48-.38-.44-.8-.79-1.28-1.04-.51-.26-1.08-.4-1.71-.41-4.15-.02-8.3-.03-12.44.02-.71.01-1.49.28-2.11.65-.82.49-1.33,1.17-1.59,1.98h-22.93v-49.28c.06.04.13.07.19.11.32.19.65.37.98.54.39.21.79.4,1.2.59,5.77,2.68,12.22,3.37,18.44,4.66,16.89,3.52,23.74,10.82,38.55,18.93,3.32,3.96,7.08,7.51,11.1,10.8,1.43,1.18,2.91,2.3,4.39,3.43.91.7,1.42.68,2.32.01.59-.44,1.17-.88,1.75-1.33,6-4.65,11.51-9.8,16.07-15.91,3.12-4.16,5.7-8.62,7.15-13.66,3.96-3.14,9.11-4.8,14.15-5.77,6.43-1.25,13.08-1.64,19.21-3.95,6.06-2.28,11.37-6.46,15.09-11.75.24-.35.48-.7.71-1.06.17-.26.34-.52.49-.79.03-.03.04-.06.06-.09Z"/>
      <path class="cls-32" d="m574.54,153.36c-.79-1.67-1.89-3.14-3.39-4.24-3.28-2.38-6.9-2.73-10.71-1.66-3.46.97-6.36,2.93-8.99,5.31-1.09.99-1.82.97-2.9-.02-1.91-1.77-3.99-3.27-6.37-4.35-2.64-1.2-5.39-1.85-8.28-1.31-4.06.74-6.81,3.15-8.32,6.96-1.33,3.37-1.21,6.84-.54,10.32.82,4.31,2.57,8.24,4.86,11.95,5.25,8.52,12.49,15.12,20.37,21.14.1-.04.14-.05.17-.07.49-.37.99-.74,1.47-1.12,5.92-4.63,11.43-9.69,15.92-15.76,4.13-5.58,7.26-11.6,7.99-18.65.31-2.95-.01-5.77-1.28-8.48Z"/>
      <path class="cls-19" d="m576.44,154.21c-.96-2.59-2.5-4.64-4.39-6.12-2.95-2.31-6.77-3.24-10.64-2.67-3,.44-5.72,1.62-8.23,3.29-1.04.69-2.03,1.46-3.08,2.22-.12-.09-.27-.2-.41-.32-1.9-1.55-3.93-2.89-6.19-3.84-.61-.26-1.23-.49-1.86-.68h0c-2.45-.79-4.97-1.06-7.58-.54-5.1,1.02-8.39,4.12-10.06,8.97-1.44,4.2-1.2,8.45-.07,12.68,1.4,5.24,4.05,9.85,7.24,14.18.82,1.11,1.68,2.19,2.57,3.24,3.32,3.96,7.08,7.51,11.1,10.8,1.43,1.18,2.91,2.3,4.39,3.43.91.7,1.42.68,2.32.01.59-.44,1.17-.88,1.75-1.33,6-4.65,11.51-9.8,16.07-15.91,3.12-4.16,5.7-8.62,7.15-13.66,0-.02,0-.04.02-.06,1.3-4.57,1.58-9.17-.1-13.69Z"/>
      <path class="cls-14" d="m626.23,313.83v3.21h-74.68v-81.02c.35-.03.69-.07,1.04-.12,3.78-.5,7.46-1.43,11.07-2.62,2.79-.92,5.54-1.95,8.25-3.07l54.32,83.62Z"/>
      <path class="cls-15" d="m551.55,236.02v81.02h-77.17v-2.86l53.6-80.1c1.87-.07,3.74.04,5.6.36,2.74.46,5.46.97,8.19,1.41,3.25.52,6.52.54,9.78.17Z"/>
      <path class="cls-23" d="m527.98,234.08l-53.6,80.1v-67.34l22.09-11.08v1.35c0,1.17.43,1.58,1.7,1.58h1.36c.36.14.74.23,1.14.25.8.04,1.6.04,2.41.04,3.38,0,6.75-.01,10.13,0,1.74.01,2.94-.81,3.76-2.31.12-.21.36-.43.59-.51,2.57-.89,5.2-1.55,7.9-1.88.84-.11,1.68-.17,2.52-.2Z"/>
      <path class="cls-11" d="m499.53,238.69h-1.36c-1.27,0-1.7-.41-1.7-1.58v-1.35l.65-.33c.01.19.04.39.09.57.01.08.03.16.06.24.13.44.33.85.61,1.21.09.12.19.24.29.35.15.15.32.3.49.42.12.09.24.17.37.24,0,0,.01.01.02.01.15.08.31.16.48.22Z"/>
      <path class="cls-19" d="m497.09,210.6c0-.55.06-1.06.22-1.53h-.84c-.01,4.41,0,8.81,0,13.23s-.01,8.98,0,13.46l.65-.33c-.02-.2-.03-.41-.03-.62,0-8.07.01-16.14,0-24.21Zm66.39,6.63l-.75-1.16-.3-.46-3.57-5.51-.77-1.18h-.01c-2.18-.68-4.34-1.4-6.53-2.05v3.15c2,.65,4,1.28,6,1.91,2.75.87,2.79,3.71,1.33,5.3-.45.49-1.01.83-1.65.85-.04.01-.08.01-.13.01-1.85-.04-3.72-.03-5.54-.28h-.01c-3.73-.51-7.27-1.58-10.72-2.94-1.95-.76-3.88-1.62-5.79-2.52-.25-.12-.5-.26-.76-.36-.7-.26-1.48.04-1.77.67-.38.81-.18,1.62.58,1.98,2,.97,4.03,1.89,6.08,2.71,3.45,1.38,7.01,2.5,10.72,3.18.55.1,1.1.19,1.66.27,2.36.31,4.74.4,7.13.24,2.23-.15,4.41-.54,6.54-1.14l-1.74-2.67Z"/>
      <path class="cls-16" d="m496.47,209.07c-.01,4.41,0,8.81,0,13.23s-.01,8.98,0,13.46l-22.09,11.08v-37.77h22.09Z"/>
      <path class="cls-8" d="m602.26,205.27c-2.31-3.73-6.67-4.86-10.47-2.65-4.23,2.46-8.41,5-12.63,7.48-3.89,2.29-7.83,4.51-12.11,6.02-1.18.41-2.38.76-3.57,1.11l-4.08,1.17c-2.13.6-5.49.71-7.85.4-.56-.08-7.48-1.45-10.93-2.83-2.05-.82-5.53-.36-7.53-1.33-.76-.36-.96-1.17-.58-1.98.29-.63,1.07-.93,1.77-.67.26.1.51.24.76.36,1.91.9,3.84,1.76,5.79,2.52,3.45,1.36,6.99,2.43,10.72,2.94h.01c1.82.25,3.69.24,5.54.28.05,0,.09,0,.13-.01.61-.09.98-.85,1.65-.85,1.69,0,2.87-.7,3.55-1.62.17-.24.32-.45.43-.71v-.04c.59-1.39.22-3-1.07-3.56-.01-.01-.02-.01-.02-.01-.07-.04-.14-.07-.21-.09-.94-.3-1.82-.69-2.7-1.1h-.01c-1-.45-1.99-.92-3.05-1.27l-4.25-1.96c-.19-.06-.39-.12-.58-.18-1.29-.38-2.57-.79-3.85-1.21-3.07-1-6.14-2.02-9.31-2.69-3.01-.63-5.96-.5-8.9.32-3.07.84-5.89,2.29-8.74,3.65-1.12.53-2.23,1.06-3.35,1.59-.15-.19-.26-.34-.38-.48-.38-.44-.8-.79-1.28-1.04-.51-.26-1.08-.4-1.71-.41-4.15-.02-8.3-.03-12.44.02-.71.01-1.49.28-2.11.65-.82.49-1.33,1.17-1.59,1.98-.16.47-.22.98-.22,1.53.01,8.07,0,16.14,0,24.21,0,.21.01.42.03.62.01.19.04.39.09.57.01.08.03.16.06.24.13.44.33.85.61,1.21.09.12.19.24.29.35.15.15.32.3.49.42.12.09.24.17.37.24,0,0,.01.01.02.01.15.08.31.16.48.22.36.14.74.23,1.14.25.8.04,1.6.04,2.41.04,3.38,0,6.75-.01,10.13,0,1.74.01,2.94-.81,3.76-2.31.12-.21.36-.43.59-.51,2.57-.89,5.2-1.55,7.9-1.88.84-.11,1.68-.17,2.52-.2,1.87-.07,3.74.04,5.6.36,2.74.46,5.46.97,8.19,1.41,3.25.52,6.52.54,9.78.17.35-.03.69-.07,1.04-.12,3.78-.5,7.46-1.43,11.07-2.62,2.79-.92,5.54-1.95,8.25-3.07,3.08-1.27,6.11-2.67,9.1-4.18,2.52-1.27,5.06-2.52,7.57-3.81,1.36-.7,2.69-1.47,4.03-2.21,2.36-1.31,4.75-2.58,7.07-3.96,3.91-2.33,4.97-6.91,2.58-10.78Zm-102.18,17.43c0-4-.01-7.99,0-11.99,0-1.01.29-1.32,1.29-1.32,3.9-.01,7.8-.01,11.7,0,.95,0,1.27.28,1.28,1.22.02,3.75.01,7.5.02,11.25.01,2.29.04,4.58.04,6.86,0,2.03-.02,4.05-.04,6.08-.01.84-.39,1.21-1.25,1.22h-11.75c-.96,0-1.29-.33-1.29-1.28-.01-4.01,0-8.03,0-12.04Z"/>
      <path class="cls-10" d="m515.3,229.71c0,2.5-.02,4.98-.05,7.48-.01,1.03-.51,1.49-1.64,1.5h-15.44c-1.27,0-1.7-.41-1.7-1.58v-1.35c-.01-4.48,0-8.97,0-13.46s-.01-8.82,0-13.23v-1.51c0-1.25.38-1.63,1.7-1.63,5.12,0,10.25,0,15.37,0,1,0,1.47.22,1.62.9.04.17.06.37.06.6.03,4.62.02,9.23.03,13.84,0,2.82.05,5.64.05,8.44Z"/>
      <g>
        <path class="cls-33" d="m624.97,146.49c-3.72,5.29-9.03,9.47-15.09,11.75-6.13,2.31-12.78,2.7-19.21,3.95-5.04.97-10.19,2.63-14.15,5.77,0-.02,0-.04.02-.06,1.3-4.57,1.58-9.17-.1-13.69-.96-2.59-2.5-4.64-4.39-6.12,6.36-7.84,11.77-21.19,11.07-30.4-.35-4.68-.88-9.48-.93-14.19,3.64,4.45,7.55,8.69,11.59,12.77,10.19,10.29,21.29,19.66,31.19,30.22Z"/>
        <path class="cls-39" d="m623.68,145.73c-2.46,3.45-5.6,6.4-9.22,8.61-3.96,2.42-8.35,3.71-12.89,4.55-9.05,1.68-18.55,2.14-26.1,8.01l2.51,1.46c2.39-7.16,1.29-16.38-4.86-21.33v2.12c4.79-5.96,8.28-13.14,10.23-20.52.89-3.39,1.49-6.95,1.31-10.47-.25-4.9-.89-9.75-.96-14.66l-2.56,1.06c10.02,12.21,21.94,22.55,33.3,33.46,3.23,3.11,6.41,6.27,9.48,9.53,1.33,1.41,3.44-.71,2.12-2.12-10.83-11.52-23.03-21.63-33.95-33.06-3.06-3.2-6.02-6.51-8.83-9.93-.85-1.03-2.58-.16-2.56,1.06.07,4.75.61,9.46.93,14.19.22,3.3-.26,6.58-1.08,9.77-1.79,6.99-5.02,13.93-9.55,19.57-.46.58-.68,1.57,0,2.12,5.37,4.33,6.17,12.17,4.08,18.41-.53,1.58,1.45,2.28,2.51,1.46,5.81-4.51,13.46-5.46,20.49-6.53s14.22-2.72,20.2-7.1c3.1-2.28,5.76-5.01,8-8.14,1.12-1.58-1.48-3.08-2.59-1.51Z"/>
      </g>
      <path class="cls-39" d="m535.61,183.92c-.37-.2-.74-.4-1.11-.6-.17-.11-.36-.17-.56-.18-.2-.04-.4-.04-.6.03-.2.05-.37.14-.51.27-.16.11-.29.25-.39.42l-.15.36c-.07.27-.07.53,0,.8l.15.36c.13.23.31.4.54.54.37.2.74.4,1.11.6.17.11.36.17.56.18.2.04.4.04.6-.03.2-.05.37-.14.51-.27.16-.11.29-.25.39-.42l.15-.36c.07-.27.07-.53,0-.8l-.15-.36c-.13-.23-.31-.4-.54-.54h0Z"/>
      <g>
        <path class="cls-31" d="m503.06,73.29c-.98,4.98-3.68,9.29-7.02,13.19-5.48-.78-13.03-1.24-18.05-3.51-1.28-.58-2.48-1.26-3.61-2.03v-13.74h29c.17,2.03.08,4.07-.32,6.09Z"/>
        <path class="cls-39" d="m501.62,72.89c-.99,4.76-3.52,8.86-6.63,12.53l1.46-.39c-7.28-1.02-15-1.18-21.3-5.39l.74,1.3v-13.74l-1.5,1.5h29l-1.5-1.5c.14,1.91.08,3.8-.27,5.69s2.54,2.7,2.89.8c.4-2.15.53-4.3.37-6.49-.06-.81-.64-1.5-1.5-1.5h-29c-.81,0-1.5.69-1.5,1.5v13.19c0,.18-.02.37,0,.54.13,1.21,1.34,1.73,2.29,2.27,2.12,1.22,4.4,2.07,6.78,2.65s4.72.92,7.1,1.24c1.11.15,2.23.28,3.34.42s2.5.53,3.65.47c1.28-.07,2.2-1.81,2.91-2.73.85-1.12,1.65-2.27,2.37-3.48,1.48-2.51,2.6-5.23,3.19-8.08.39-1.88-2.5-2.69-2.89-.8Z"/>
      </g>
      <path class="cls-8" d="m562.73,216.07l-4.64-7.15c.11.04.22.08.33.11,2.31.73,3.87,2.18,4.33,4.62.16.81.15,1.62-.02,2.42Z"/>
    </g>
    <path class="cls-13" d="m501.38,67.2h-27v13.74c-3.22-2.19-5.83-5.12-7.85-8.49v-14.12h32.55c1.22,2.84,2.05,5.83,2.3,8.87Z"/>
    <path class="cls-13" d="m561.08,67.2h-59.7c-.25-3.04-1.08-6.03-2.3-8.87h58.08c.66,1.47,1.32,2.95,1.97,4.43.65,1.48,1.3,2.96,1.95,4.44Z"/>
    <path class="cls-13" d="m613.32,58.33c-.33.39-.67.78-1.02,1.16-.4.45-.81.88-1.24,1.31-.34.35-.68.7-1.03,1.03-.37.37-.75.73-1.14,1.09-.01,0-.02.02-.03.02-.39.37-.8.73-1.2,1.09-.41.36-.81.72-1.23,1.07-.33.29-.66.57-1,.85-.5.42-1,.84-1.5,1.25h-42.85c-.65-1.48-1.3-2.96-1.95-4.44-.65-1.48-1.3-2.96-1.97-4.43h56.16Z"/>
    <path class="cls-13" d="m634.08,58.33v62.84c-.44,1.17-.84,2.37-1.2,3.57-1.64,5.42-2.52,11.1-4.81,16.28-.2.45-.41.89-.63,1.33-.02.05-.05.1-.07.15-.17.33-.34.65-.51.96-.04.08-.08.16-.13.23-.14.25-.28.5-.44.75-.01.04-.04.08-.06.11v-77.35h-22.3c.5-.41,1-.83,1.5-1.25.34-.28.67-.56,1-.85.42-.35.82-.71,1.23-1.07.4-.36.81-.72,1.2-1.09.01,0,.02-.01.03-.02.39-.36.77-.72,1.14-1.09.35-.33.69-.68,1.03-1.03.43-.43.84-.86,1.24-1.31.35-.38.69-.77,1.02-1.16h20.76Z"/>
    <path class="cls-13" d="m634.08,121.17v130.36l-7.85-5.06v-101.92s.05-.07.06-.11c.16-.25.3-.5.44-.75.05-.07.09-.15.13-.23.17-.31.34-.63.51-.96.02-.05.05-.1.07-.15.22-.44.43-.88.63-1.33,2.29-5.18,3.17-10.86,4.81-16.28.36-1.2.76-2.4,1.2-3.57Z"/>
    <polygon class="cls-13" points="634.08 251.53 634.08 325.91 626.23 313.83 626.23 246.47 634.08 251.53"/>
    <polygon class="cls-13" points="634.08 325.91 551.55 325.91 551.55 317.04 626.23 317.04 626.23 313.83 634.08 325.91"/>
    <polygon class="cls-13" points="551.55 317.04 551.55 325.91 466.53 325.91 474.38 314.18 474.38 317.04 551.55 317.04"/>
    <polygon class="cls-13" points="474.38 246.84 474.38 314.18 466.53 325.91 466.53 250.78 474.38 246.84"/>
    <polygon class="cls-13" points="474.38 209.07 474.38 246.84 466.53 250.78 466.53 209.07 474.38 209.07"/>
    <path class="cls-13" d="m474.38,159.79v49.28h-7.85v-56.05c.3.36.6.72.92,1.07l.03.03c.12.14.25.28.38.42.2.22.41.44.63.66.15.16.31.31.47.47.18.17.36.34.55.5.03.03.06.05.09.08.03.04.07.07.11.1.12.12.26.24.39.35l.02.02c.31.28.64.55.97.8l.03.03c.06.06.13.11.2.16.29.23.58.45.88.66.32.24.65.46.98.68.08.05.17.11.25.16.03.02.05.03.08.05.25.16.51.32.76.46.04.03.07.05.11.07Z"/>
    <path class="cls-13" d="m474.38,101.27v58.52s-.07-.04-.11-.07c-.25-.14-.51-.3-.76-.46-.03-.02-.05-.03-.08-.05-.08-.05-.17-.11-.25-.16-.33-.22-.66-.44-.98-.68-.3-.21-.59-.43-.88-.66-.07-.05-.14-.1-.2-.16l-.03-.03c-.33-.25-.66-.52-.97-.8l-.02-.02c-.13-.11-.27-.23-.39-.35-.04-.03-.08-.06-.11-.1-.03-.03-.06-.05-.09-.08-.19-.16-.37-.33-.55-.5-.16-.16-.32-.31-.47-.47-.22-.22-.43-.44-.63-.66-.13-.14-.26-.28-.38-.42l-.03-.03c-.32-.35-.62-.71-.92-1.07v-51.37c.9.06,1.8.09,2.69.09h.05c.32,0,.65-.01.97-.02.14,0,.27-.01.4-.02.05.01.1.01.14-.01.29,0,.57-.02.85-.05.51-.03,1.01-.08,1.5-.15.42-.06.84-.13,1.25-.22Z"/>
    <path class="cls-13" d="m474.38,80.94v20.33c-.41.08-.83.15-1.25.22-.49.07-.99.12-1.5.15-.28.03-.56.05-.85.05-.04.02-.09.02-.14.01-.13.01-.26.02-.4.02-.32.01-.65.02-.97.02h-.05c-.89,0-1.79-.04-2.69-.09v-29.2c2.02,3.37,4.63,6.3,7.85,8.49Z"/>
    <rect class="cls-19" x="474.38" y="67.2" width="151.85" height="249.84"/>
    <rect class="cls-19" x="474.38" y="67.2" width="151.85" height="249.84"/>
  </g>
  <g>
    <polygon class="cls-29" points="157.06 236.59 175.41 234.03 175.84 220.37 174.77 213.96 157.06 236.59"/>
    <path class="cls-38" d="m175.27,234.05l-25.02,5.47-.23.05s-.31.2-.86.56c-.06.04-.13.09-.2.13-3.05,2.05-11.9,8.36-16.44,15.53-.51.81-1.01,1.6-1.48,2.37,0,.01-.01.02-.01.02-4.25,6.98-6.56,11.99-6.86,12.65-.02.05-.03.07-.03.07l-4-8.49-6.8-10.41-3.23-4.96-3.76-3.22v81.27l46.01.06s.19-.38.54-1.09c.59-1.21,1.64-3.37,2.95-6.2.43-.93.89-1.93,1.37-3,5.77-12.71,14.7-34.27,15.42-47.33.03-.53.06-1.05.09-1.57v-.02c.82-14.41,1.98-25.66,2.46-29.99,0-.02,0-.04,0-.07v-.02c.13-1.2.21-1.84.21-1.84l-.14.03Zm-67.35,89.86v-6.05h45.21c-.95,2.01-1.91,3.99-2.86,5.95-.02.03-.03.07-.05.1h-42.3Z"/>
    <path class="cls-40" d="m104.49,241.67l-.64-.73s-.04-.03-.06-.04h-.01c-1.1-.66-15.62-9.46-22.91-23.38-.04-.06-.07-.11-.09-.17t0-.02c-1.2-2.31-2.19-4.77-2.89-7.35-.63-2.33-1.04-4.66-1.28-6.97v-.03c-.99-9.8,1.19-19.05,3.1-24.9,0-.02.01-.04.02-.06,1.27-3.88,2.41-6.24,2.41-6.24l2.07-2.36s.01-.01.02-.02l9.28-10.57,4.73-5.4,2.5-1.25-4.29-3.27h0l-1.44-1.1-27.22-7.86-14.37-7.28-3-1.52-1.6-.81-4.88-3.37c-.08-.06-.12-.09-.12-.09l.13,198.2h62.42v-81.27l-1.86-2.14Zm-36-100.53c3.77,1.51,7.71,2.75,11.63,3.45,6.21,1.56,13.93,2.16,18.8,6.73-8.16,4.8-15.82,12.72-20.46,22.99-2.75-2.22-5.77-3.93-9.05-5.13-.44-.16-.87-.3-1.3-.44-.75-.23-1.49-.43-2.22-.58-.21-.05-.41-.1-.61-.13-.11-.03-.22-.05-.33-.06-.31-.06-.62-.11-.93-.16-.61-.1-1.22-.17-1.82-.21-.3-.03-.6-.05-.9-.06-.3-.02-.59-.03-.88-.04-.61-.02-1.22-.02-1.82,0-.21,0-.42.01-.63.02-.27.01-.53.02-.79.04-.19.01-.39.02-.58.04l-.36.03c-.35.03-.7.06-1.04.1-.61.06-1.21.13-1.8.21-.03,0-.05,0-.07,0-.46.06-.91.12-1.36.19-.47.06-.94.13-1.4.2-.06.01-.11.02-.17.02-1.83.27-3.55.52-5.2.62v-39.7c1.68,1.23,3.42,2.39,5.2,3.47.99.6,1.99,1.18,3,1.74,2.4,1.32,4.87,2.53,7.39,3.64.75.32,1.51.64,2.27.95.5.21,1,.41,1.5.6.32.12.64.25.96.37.96.37,1.93.72,2.9,1.06.02.02.05.02.07.03Zm36.43,182.77h-59.72v-151.92c1.7-.1,3.44-.33,5.2-.59v146.46h54.52v6.05Z"/>
    <path class="cls-34" d="m53.4,88.96l-3-2.95-6.6-6.49v47.36s.04.03.12.09c.54.42,2.92,2.24,6.48,4.56.92.61,1.93,1.25,3,1.9,4.18,2.57,9.4,5.43,15.02,7.68.02.02.05.02.07.03,3.77,1.51,7.71,2.75,11.63,3.45,7.83,1.4,12.99,2.98,16.31,4.32h0c4.27,1.73,5.5,3.05,5.5,3.05l3.68-4.03,2.54-5.14-54.76-53.83Zm-8.2-5.67l5.2,5.2v40.75c-1.79-1.14-3.53-2.36-5.2-3.67v-42.28Z"/>
    <circle class="cls-28" cx="125.72" cy="196.47" r="49.55"/>
    <path class="cls-37" d="m104.42,243.17s16.53,13.52,19.72,27.73c0,0,5.32-17.68,24.83-28.25l-.22-50.25s6.09-4.23,7.21-13.58c1.12-9.35-1.7-15.28-1.7-15.28,0,0,5.09-15.28,1.27-16.76s-8.67-1.19-8.67-1.19c0,0-3.85-5.17-7.03-4.75s-6.15,1.7-6.15,1.7c0,0,1.39-10.4-3.97-9.97s-9.43,9.45-9.43,9.45l-5.75-5.75-6.37,6.53-3.46,15.85s-12.81,9.78-13.02,11.27c-.21,1.49,13.38,17,13.38,17l1.68,7.19-2.32,49.07Z"/>
    <path class="cls-31" d="m211.34,144.18l-1.35-61.06-5.51,5.41-3,2.94-32.59,32-.23.23-19.95,19.58s.12,0,.39.07c.63.18,2.1.75,5.01,2.63.23.15.44.32.62.52,2.16,2.25,1.43,7.3.73,10.33-.32,1.37-.63,2.32-.66,2.44.06-.04.36-.25.83-.47.42-.2.98-.41,1.65-.54,1-.2,2.24-.2,3.59.34,1.52.61,4.47,6.2,7.23,12.17,0,.01.02.02.02.03,2.06,4.42,4.02,9.03,5.23,11.97.79,1.89,1.27,3.09,1.27,3.09l2.7,8.34s.42-1.09,1.23-2.9h0c.96-2.18,2.48-5.39,4.49-9.03,4.01-7.26,9.99-16.23,17.49-22.09.33-.25.64-.51.95-.76,1.11-.89,2.11-1.75,3-2.56,9.76-8.89,6.86-12.68,6.86-12.68Zm-1.58,2.44c0,.79-.09,1.67-.08,2.52-1.75,1.46-3.49,2.93-5.2,4.41v-63.47l5.28-5.28v61.82Z"/>
    <path class="cls-34" d="m129.63,58.98l-1.57.02-.06,6-.03,3-.69,65.15s.11.02.29.05c1.24.24,6.03,1.41,5.62,4.93-.46,4.04.47,7.46.47,7.46,0,0,3.57-5.91,7.77-4.35.91.34,1.69.74,2.34,1.16,2.22,1.4,3.02,3.02,3.09,3.18h.01s2.23-2.23,2.23-2.23l19.56-19.65,32.82-32.98,3-3.02,6.44-6.47v-23.16l-81.29.91Zm80.13,20.16l-5.28,5.28v-19.42h-74.77v-5.66h74.75c1.72,0,3.54.14,5.3.07v19.73Z"/>
    <path class="cls-31" d="m129.71,56.34l-.08,2.64-.19,6.02-.1,3-2.06,65.15s-5.13,2.65-6.06,5.76c-.7,2.33-.87,2.92-.91,3.06l-.02.05s0,0-.01-.02c-.15-.33-2.58-5.74-5.74-5.74s-6.19,6.13-6.37,6.51c0,.01,0,.02,0,.02l-54.76-53.83-3-2.95-6.6-6.49,1.4-20.05c.04,3.07,0,6.15,0,9.23v8.94l5.2,5.2v-17.84h75.31v-5.66H45.21l84.5-3Z"/>
    <path class="cls-35" d="m204.48,157.59c-.95.85-1.96,1.77-3,2.74-6.06,5.67-13.24,13.35-18.43,21.92,0,0,0,.01,0,.02-1.77,2.92-3.31,5.94-4.49,9.02,0,.02-.02.04-.03.07-1.45,3.8-2.37,7.7-2.51,11.59-.18,4.88-.27,10.35-.38,16.19-.08,4.76-.19,9.77-.36,14.9h0c-.03.62-.05,1.23-.07,1.84,0,.03,0,.05,0,.07-.37,9.89-1.05,20.17-2.46,29.99-1.73,12-4.55,23.32-9.25,32.39-3.88,7.49-6.63,12.79-8.57,16.53-.58,1.14-1.1,2.13-1.55,3l-3.13,6.05,2.67.15,60.36,3.35v-176.98s-3.7,2.67-8.78,7.16Zm4.78,165.82h-54.35c.88-1.83,1.76-3.68,2.63-5.55h46.94v-158.98c1.56-1.4,3.16-2.78,4.78-4.16v168.69Z"/>
    <path class="cls-39" d="m213.18,146.32l-.39.32c-.02-.53-.03-1.06-.03-1.57v-66.45c0-6.81.21-13.66,0-20.48v-.3c0-.82-.69-1.5-1.5-1.5H64.31c-6.76,0-13.57-.23-20.33,0h-.28c-.44,0-.78.16-1.02.4-.01.01-.03.03-.05.04,0,.01-.02.02-.02.03-.25.24-.41.58-.41,1.03v256.7c0,3.47-.07,6.94,0,10.41v.46c0,.81.69,1.5,1.5,1.5h105.06l-.24.5h64.74v-176.99l-.08-4.1Zm-102.61-1.96l1-4.19c.21-.86.71-1.53,1.41-1.88.64-.32,1.37-.33,2.07-.03.02,0,.05.03.07.04.11.05.21.1.31.16l.05.05c.1.06.19.13.28.21.04.04.07.08.1.12.06.06.12.11.17.18.42.53.59,1.21.44,1.89-.52,2.41-1.1,4.84-1.67,7.22-.1.42-.2.84-.3,1.25-.14.6-.28,1.21-.43,1.8-.94-.31-1.88-.46-2.81-.46-.75,0-1.51.1-2.25.31.1-.44.21-.89.31-1.33.42-1.78.83-3.56,1.25-5.34Zm-32.57,54.45c-.41-6.73.57-12.99,2.54-18.62.33-1.01.71-1.99,1.13-2.95,4.19-9.94,11.4-17.67,18.9-22.24,0,.78.06,1.57.21,2.38l-1.07,1.08c-2.09,2.12-4.26,4.32-6.47,6.36-4.31,3.99-3.54,9.81-.63,13.26,3.15,3.73,6.3,7.6,9.34,11.34l2.53,3.11c.03,15.44.03,30.86.03,46.29-12.4-5.89-25.31-20.28-26.51-40.01Zm51.5-35.73l-.62-.62c.32-.67.61-1.35.8-2.07.03-.11.06-.22.09-.33-.05.22-.1.44-.15.65-.18.79-.22,1.59-.12,2.37Zm-.22,5.44c1.29,1.28,1.59,3.32.59,4.83-1.38,2.08-4.22,2.29-5.89.62l-11.22-11.22c-.78-.78-2.05-.78-2.83,0-.39.39-.59.9-.59,1.41s.2,1.03.59,1.42l11.23,11.22c1.52,1.52,3.52,2.28,5.51,2.28s4-.76,5.52-2.28c2.16-2.16,2.78-5.28,1.87-8,.78.3,1.62.45,2.49.45h.02c.38,0,.75-.03,1.12-.1.12-.01.23-.05.35-.07.25-.06.49-.12.72-.2.14-.04.26-.09.39-.14.21-.09.42-.18.62-.29.13-.06.25-.13.38-.2.19-.12.38-.25.56-.38.11-.08.22-.16.33-.25.19-.16.37-.33.54-.51.08-.08.17-.16.24-.24.24-.27.47-.56.67-.87.01-.02.02-.05.04-.08.16-.25.31-.52.44-.8,0,.02,0,.05.02.07.02.27.06.53.12.78,0,.02.01.04.01.06.06.24.14.47.22.7.03.07.06.15.09.22.08.18.17.35.26.53.04.07.08.13.12.2.14.23.29.45.46.66,1.1,1.36,2.72,2.14,4.46,2.14.04,0,.08-.01.12-.01.31,0,.61-.04.9-.09.07-.01.13-.02.2-.03.28-.06.55-.13.82-.22.04-.02.08-.03.12-.05.24-.09.47-.2.7-.32.04-.02.09-.04.13-.07.24-.13.47-.29.68-.46.05-.04.09-.07.14-.11.2-.17.4-.35.57-.55.02-.02.03-.03.04-.04.01-.01.01-.02.02-.02,0,.02,0,.04,0,.07-.02.13-.04.26-.05.4,0,.07-.02.13-.02.2,0,.21,0,.43.01.65.08.86.19,1.72.3,2.57.19,1.51.38,2.92.39,4.32.03,5.31-1.98,9.83-6,13.45-.78.72-1.06,1.8-1.06,2.57-.02,11.81,0,23.61,0,35.42v11.62c0,.23.03.46.07.7-1.08.7-2.14,1.42-3.17,2.19,0,.01-.01.01-.01.01,0,0,0,.01-.02.01-.65.47-1.29.96-1.91,1.47-4.55,3.67-8.5,8.08-11.6,13.06-.32.52-.64,1.05-.94,1.58-1.89,3.3-3.4,6.82-4.54,10.45h-.27c-2.76-9.69-8.27-18.42-15.82-25.08v-3.21c0-16.16,0-32.31-.03-48.47,0-.11-.02-.22-.03-.33,0-.1,0-.21-.03-.31,0-.06-.03-.12-.04-.18-.13-.58-.37-1.13-.73-1.58l-2.59-3.18h-.01s-.05-.08-.09-.11c-.04-.05-.09-.11-.13-.16-2.98-3.67-6.06-7.46-9.16-11.15-1.76-2.08-2.23-5.41.29-7.74,2.27-2.1,4.47-4.33,6.6-6.48l1.35-1.37c.16-.15.31-.34.44-.55h0c.13-.22.25-.45.34-.7h0s0-.02,0-.02l2.72-2.26c2.34-1.95,4.42-2.15,6.95-.69l1.63,1,9.41,7.97,3.87,3.87Zm8.13-23.46c.04-.17.1-.34.17-.5.34-.79.98-1.36,1.77-1.63.31-.1.65-.16,1-.16.25,0,.51.03.78.09,1.39.33,2.33,1.58,2.33,2.97,0,.23-.03.47-.08.7-.25,1.11-.51,2.21-.78,3.33v.02c-1.01,4.41-2.06,8.81-3.05,12.97-.35,1.43-1.56,2.4-3,2.4h0c-.95,0-1.83-.42-2.43-1.17-.58-.72-.79-1.6-.59-2.48.92-4.07,1.91-8.31,3.15-13.46.24-.99.48-2.02.74-3.08Zm12.43,7.06l.81-3.4c.13-.57.43-.95.97-1.22.32-.17.6-.25.88-.25.34,0,.67.13,1.02.39.69.5.91,1.08.72,1.89-.42,1.8-.84,3.62-1.29,5.53h0c-.13.58-.27,1.16-.41,1.75-.6,2.55-1.24,5.24-1.95,8.18-.17.71-.57,1.18-1.16,1.38-.2.06-.42.1-.66.1-.75.03-1.19-.4-1.4-.65-.36-.45-.5-1.04-.36-1.63.86-3.72,1.73-7.42,2.61-11.13.07-.31.15-.63.22-.94Zm8.67,12.26c.28-1.1.54-2.2.8-3.3.65.65,1.29,1.3,1.9,1.96,8.61,9.28,12.93,20.33,12.88,32.96,0,.9-.03,1.81-.08,2.73-.96,18.26-11.91,31.2-22.29,37.72-.33.21-.67.42-1,.61v-8.9c0-11.75-.01-23.5,0-35.26.59-.54,1.14-1.11,1.66-1.68,3.62-4.05,5.44-8.93,5.4-14.53-.02-1.64-.22-3.25-.42-4.8-.11-.81-.21-1.62-.29-2.42,0-.06,0-.24.13-.69.17-.61.36-1.2.54-1.8.26-.86.53-1.73.76-2.6Zm15.35,56.71c0,1.24-.02,2.47-.04,3.7-.04,2.68-.11,5.2-.2,7.67-4.17.01-8.31.58-12.31,1.65,4.95-4.57,9.51-10.5,12.62-17.7-.03,1.57-.05,3.13-.07,4.68Zm-50.92-81c.51-1.98,1.04-3.77,3.13-4.57,1.7-.66,3.66-.14,4.9,1.16,1.43,1.5,1.28,3.24.82,5.1-.43,1.8-.91,3.59-1.43,5.36-.1.34-.2.68-.3,1.02-.69,2.29-1.4,4.56-2.06,6.85-.34,1.21-.67,2.43-.98,3.65-.19.75-.43,1.43-.71,2.09-1.23-1.1-2.45-2.21-3.69-3.32-.86-.77-1.73-1.55-2.59-2.34-.2-.18-1.06-.75-1.14-1.04-.12-.44.35-1.41.47-1.86.43-1.69.94-3.36,1.46-5.03.74-2.35,1.5-4.69,2.12-7.07Zm-17.32,7.84l-3.29,1.57c-.22.1-.43.21-.65.32-4.2-4.57-10.74-5.83-16.58-7.13-6.43-1.43-12.79-3.25-18.95-5.62-4.35-1.67-8.66-3.66-12.75-6.02-1.01-.57-2.01-1.18-3-1.81-1.79-1.14-3.53-2.36-5.2-3.67v-42.28l61.23,61.23c-.27,1.14-.54,2.28-.81,3.41Zm-44.83-9.8c.76.32,1.51.64,2.27.95.5.21,1,.41,1.5.6.32.13.64.25.96.37.96.37,1.93.72,2.9,1.06.02.02.05.02.07.03,3.83,1.34,7.73,2.47,11.63,3.45,6.21,1.56,13.93,2.16,18.8,6.73-8.16,4.8-15.82,12.72-20.46,22.99-2.75-2.22-5.77-3.93-9.05-5.13-.44-.16-.87-.3-1.3-.44-.75-.23-1.49-.43-2.22-.58-.21-.05-.41-.1-.61-.13-.11-.03-.22-.05-.33-.06-.31-.06-.62-.11-.93-.16-.61-.09-1.22-.16-1.82-.21-.3-.03-.6-.05-.9-.06-.3-.02-.59-.03-.88-.04-.61-.02-1.22-.02-1.82,0-.21,0-.42.01-.63.02-.27.01-.53.02-.79.04-.19.01-.39.02-.58.04l-.36.03c-.35.03-.7.06-1.04.1-.61.06-1.21.13-1.8.21-.03,0-.05,0-.07,0-.46.06-.91.12-1.36.19-.47.06-.94.13-1.4.2-.06.01-.11.02-.17.02-1.83.27-3.55.52-5.2.62v-39.7c1.68,1.23,3.42,2.39,5.2,3.47.99.6,1.99,1.18,3,1.74,2.4,1.32,4.87,2.53,7.39,3.64Zm47.13,109.57c6.59,6.31,11.37,14.27,13.74,23.14.13.49.55.94,1.05,1.05.84.19,1.68.39,2.52.59.1.02.2.04.3.04.2.01.39,0,.57-.08.46-.15.83-.5.97-1.01.54-1.88,1.19-3.71,1.94-5.5.05-.11.09-.23.13-.34.32-.73.66-1.45,1.01-2.16.1-.21.19-.43.3-.64.31-.63.66-1.25,1.01-1.86.15-.28.3-.57.46-.85.31-.54.66-1.06.99-1.59.22-.34.42-.69.64-1.03.31-.45.64-.89.96-1.33.28-.39.55-.79.84-1.17s.6-.75.9-1.12c.35-.42.68-.86,1.04-1.27.27-.32.57-.62.85-.94.41-.44.81-.9,1.23-1.33.27-.27.55-.52.82-.79.46-.45.92-.91,1.4-1.34.26-.24.53-.45.8-.68.51-.45,1.02-.89,1.54-1.31.27-.21.54-.41.81-.61.55-.42,1.09-.84,1.66-1.24.27-.19.57-.37.85-.56.53-.36,1.05-.72,1.6-1.05,0-.01,0-.01,0-.01.04-.02.07-.05.11-.07.3-.18.62-.35.92-.53.35-.2.7-.4,1.05-.59.33-.17.65-.35.98-.54.25-.13.51-.25.76-.37.58-.29,1.15-.58,1.74-.85.39-.17.8-.33,1.2-.5.55-.23,1.1-.46,1.65-.67.47-.18.94-.32,1.41-.48.53-.18,1.05-.37,1.58-.53.36-.11.73-.21,1.1-.32.23-.06.46-.13.69-.19.57-.15,1.14-.29,1.72-.42.03-.01.07-.02.1-.02,3.16-.71,6.4-1.11,9.63-1.15-.84,18.93-3.28,35.16-7.45,49.55-.22.76-.45,1.51-.67,2.25-2.94,9.58-6.8,18.81-10.86,27.58-.46,1.01-.93,2.01-1.39,3-.95,2.01-1.91,3.99-2.86,5.95-.02.03-.03.07-.05.1h-42.3v-76.21Zm70.26-60.75c-.2.54-.38,1.09-.57,1.63-1.63-12.56-7.62-23.5-17.92-32.59l-.83-.74-1.07.32c-.16.05-.31.1-.46.16l-.47.18s.02-.06.02-.09c.19-.8.37-1.58.55-2.35.06-.24.11-.48.17-.72.15-.63.29-1.26.43-1.88.04-.14.07-.3.11-.44h0s0-.05,0-.08c.06-.27.11-.54.13-.8.02-.18.01-.35.01-.52,0-.11,0-.23,0-.34,0-.17-.05-.34-.07-.51-.02-.11-.02-.21-.04-.32-.03-.11-.07-.22-.1-.34-.04-.15-.07-.3-.13-.45-.01-.03-.03-.06-.04-.09-.29-.73-.74-1.4-1.34-1.99-.21-.2-.44-.4-.69-.58-1.47-1.07-3.12-1.4-4.78-.97l50.37-50.36,8.28-8.28v61.82c0,.79-.09,1.67-.08,2.52-1.75,1.46-3.49,2.93-5.2,4.41-1.01.88-2.01,1.76-3,2.64-10.05,9-18.77,18.6-23.3,30.76Zm-48.47-127.61h74.75c1.72,0,3.54.14,5.3.07v19.73l-5.28,5.28-57.94,57.94c-.15-.26-.31-.52-.5-.76,0-.02-.01-.03-.02-.04-.22-.29-.46-.55-.72-.8-.04-.04-.08-.08-.12-.12-.25-.23-.53-.45-.82-.65-.05-.03-.1-.07-.15-.1-.3-.19-.61-.36-.95-.51-.04-.02-.08-.03-.13-.05-.35-.15-.71-.27-1.1-.36-.24-.06-.48-.1-.72-.13-2.46-.33-4.81.62-6.32,2.4.02-.12.05-.24.07-.36.35-2.19-.26-4.41-1.75-6.08-.15-.17-.32-.35-.49-.49,0-.01,0-.02,0-.02h-.01s0-.01,0-.01c-.9-.85-1.96-1.41-3.08-1.71V59.34Zm-84.51,112.65c1.7-.1,3.44-.33,5.2-.59.2-.03.41-.06.61-.09.79-.12,1.59-.23,2.39-.34,4.69-.64,9.57-.95,14.98,1.03,3.24,1.19,6.21,2.93,8.88,5.2-2.48,6.5-3.75,13.85-3.26,21.86.13,2.13.39,4.21.76,6.23.75,4.04,1.95,7.84,3.5,11.36,1.03,2.35,2.22,4.57,3.54,6.67.65,1.05,1.34,2.07,2.06,3.05.36.49.72.98,1.09,1.45,5.62,7.21,12.68,12.47,19.47,15.34h.01s.49,1.18.49,1.18v79.57h-59.72v-151.92Zm112.34,145.87c.47-.99.94-1.99,1.39-3,3.83-8.41,7.45-17.23,10.27-26.42.24-.77.47-1.54.69-2.31,4.38-15.09,6.89-32.12,7.68-52.06.11-2.96.2-5.98.25-9.21.02-1.24.03-2.48.04-3.73.13-11.07.25-22.51,4.07-32.79,3.83-10.31,11.04-18.8,19.55-26.73.98-.93,1.98-1.84,3-2.73,1.56-1.4,3.16-2.78,4.78-4.16v168.69h-54.35c.88-1.83,1.76-3.68,2.63-5.55ZM45.2,59.34h80.51v73.21c-1.69.45-3.24,1.46-4.3,3.04-.61.91-.9,1.91-1.17,2.95-.54-1.71-1.8-3.16-3.59-3.95-.85-.37-1.74-.55-2.63-.55-.97,0-1.94.22-2.83.67-1.76.88-3.03,2.53-3.51,4.54l-.17.7-62.31-62.31v-8.94c0-3.08.04-6.16,0-9.23v-.13Z"/>
    <path class="cls-24" d="m50.4,88.49v40.75c-1.79-1.14-3.53-2.36-5.2-3.67v-42.28l5.2,5.2Z"/>
    <path class="cls-24" d="m104.92,317.86v6.05h-59.72v-151.92c1.7-.1,3.44-.33,5.2-.59v146.46h54.52Z"/>
    <path class="cls-24" d="m153.13,317.86c-.95,2.01-1.91,3.99-2.86,5.95-.02.03-.03.07-.05.1h-42.3v-6.05h45.21Z"/>
    <path class="cls-24" d="m209.26,154.72v168.69h-54.35c.88-1.83,1.76-3.68,2.63-5.55h46.94v-158.98c1.56-1.4,3.16-2.78,4.78-4.16Z"/>
    <path class="cls-24" d="m209.76,84.8v61.82c0,.79-.09,1.67-.08,2.52-1.75,1.46-3.49,2.93-5.2,4.41v-63.47l5.28-5.28Z"/>
    <path class="cls-24" d="m209.76,59.41v19.73l-5.28,5.28v-19.42h-74.77v-5.66h74.75c1.72,0,3.54.14,5.3.07Z"/>
    <path class="cls-24" d="m125.71,59.34v5.66H50.4v17.84l-5.2-5.2v-8.94c0-3.08.04-6.16,0-9.23v-.13h80.51Z"/>
    <path class="cls-24" d="m50.4,132.75v35.61c-1.83.27-3.55.52-5.2.62v-39.7c1.68,1.23,3.42,2.39,5.2,3.47Z"/>
    <path class="cls-30" d="m98.92,151.32c-8.16,4.8-15.82,12.72-20.46,22.99-2.75-2.22-5.77-3.93-9.05-5.13-.44-.16-.87-.3-1.3-.44-.75-.23-1.49-.43-2.22-.58-.21-.05-.41-.1-.61-.13-.11-.03-.22-.05-.33-.06-.31-.07-.62-.12-.93-.16-.61-.1-1.22-.17-1.82-.21-.3-.03-.6-.06-.9-.06-.3-.03-.59-.04-.88-.04-.61-.02-1.22-.02-1.82,0-.21,0-.42.01-.63.02-.27.01-.53.02-.79.04-.19.01-.39.02-.58.04l-.36.03c-.35.03-.7.06-1.04.1-.61.06-1.21.13-1.8.21-.03,0-.05,0-.07,0-.46.06-.91.12-1.36.19-.47.06-.94.13-1.4.2-.06.01-.11.02-.17.02v-35.61c.99.6,1.99,1.18,3,1.74,2.4,1.32,4.87,2.53,7.39,3.64.76.32,1.51.64,2.27.95.5.21,1,.41,1.5.6.32.13.64.25.96.37.96.37,1.93.72,2.9,1.06.02.02.05.02.07.03,3.77,1.51,7.71,2.75,11.63,3.45,6.21,1.56,13.93,2.16,18.8,6.73Z"/>
    <path class="cls-27" d="m104.52,238.83c-12.4-5.89-25.31-20.28-26.51-40.01-.41-6.73.57-12.99,2.54-18.62.33-1.01.71-1.99,1.13-2.95,4.19-9.94,11.4-17.67,18.9-22.24,0,.78.06,1.57.21,2.38l-1.07,1.08c-2.09,2.12-4.26,4.32-6.47,6.36-4.31,3.99-3.54,9.81-.63,13.26,3.15,3.73,6.3,7.6,9.34,11.34l2.53,3.11c.03,15.44.03,30.86.03,46.29Z"/>
    <path class="cls-39" d="m50.4,65v252.86h154.08V65H50.4Zm151.08,249.86H53.4V68h148.08v246.86Z"/>
  </g>
  <g>
    <g>
      <path class="cls-19" d="m287.79,174.57l-.22.23-.68.68-.09.08c.68.22,1.19,0,1.99-1.08.26-.35.27-.94.44-1.35l-1.44,1.44Zm1.49-1.53s-.04.06-.05.09l.41-.41.04-.03c-.2.05-.32.18-.4.35Zm-1.49,1.53l-.22.23-.68.68-.09.08c.68.22,1.19,0,1.99-1.08.26-.35.27-.94.44-1.35l-1.44,1.44Zm1.49-1.53s-.04.06-.05.09l.41-.41c-.07.04-.2.16-.36.32Zm34.4,16.35c-1.03,1.02-1.83,1.76-2.28,2.11-.15.12-.26.19-.33.22h3.22v-2.93c-.21.21-.41.41-.61.6Zm34.26,2.33v.11c.06-.04.13-.07.19-.11h-.19Zm10.17-4.39c-.07-.04-.14-.08-.21-.11.24.62.47,1.23.7,1.84.03-.1.05-.19.07-.3.08-.53,0-1.09-.56-1.43Zm-80.32-12.76l-.22.23-.68.68-.09.08c.68.22,1.19,0,1.99-1.08.26-.35.27-.94.44-1.35l-1.44,1.44Zm1.49-1.53s-.04.06-.05.09l.41-.41c-.07.04-.2.16-.36.32Zm34.4,16.35c-1.03,1.02-1.83,1.76-2.28,2.11-.15.12-.26.19-.33.22h3.22v-2.93c-.21.21-.41.41-.61.6Zm34.26,2.33v.11c.06-.04.13-.07.19-.11h-.19Zm10.17-4.39c-.07-.04-.14-.08-.21-.11.24.62.47,1.23.7,1.84.03-.1.05-.19.07-.3.08-.53,0-1.09-.56-1.43Zm-80.32-12.76l-.22.23-.68.68-.09.08c.68.22,1.19,0,1.99-1.08.26-.35.27-.94.44-1.35l-1.44,1.44Zm1.49-1.53s-.04.06-.05.09l.41-.41c-.07.04-.2.16-.36.32Zm34.4,16.35c-1.03,1.02-1.83,1.76-2.28,2.11-.15.12-.26.19-.33.22h3.22v-2.93c-.21.21-.41.41-.61.6Zm34.26,2.33v.11c.06-.04.13-.07.19-.11h-.19Zm10.17-4.39c-.07-.04-.14-.08-.21-.11.24.62.47,1.23.7,1.84.03-.1.05-.19.07-.3.08-.53,0-1.09-.56-1.43Zm37.42-19.29l-.18.1c.18.33.42.63.75.87l-.57-.97Zm-37.42,19.29c-.07-.04-.14-.08-.21-.11.24.62.47,1.23.7,1.84.03-.1.05-.19.07-.3.08-.53,0-1.09-.56-1.43Zm-10.17,4.39v.11c.06-.04.13-.07.19-.11h-.19Zm-2.29,58.93h.26v-.02c-.08.02-.17.02-.26.02Zm-31.97-61.26c-1.03,1.02-1.83,1.76-2.28,2.11-.15.12-.26.19-.33.22h3.22v-2.93c-.21.21-.41.41-.61.6Zm-34.4-16.35s-.04.06-.05.09l.41-.41c-.07.04-.2.16-.36.32Zm-1.49,1.53l-.22.23-.68.68-.09.08c.68.22,1.19,0,1.99-1.08.26-.35.27-.94.44-1.35l-1.44,1.44Zm80.32,12.76c-.07-.04-.14-.08-.21-.11.24.62.47,1.23.7,1.84.03-.1.05-.19.07-.3.08-.53,0-1.09-.56-1.43Zm-10.17,4.39v.11c.06-.04.13-.07.19-.11h-.19Zm-34.26-2.33c-1.03,1.02-1.83,1.76-2.28,2.11-.15.12-.26.19-.33.22h3.22v-2.93c-.21.21-.41.41-.61.6Zm-34.4-16.35s-.04.06-.05.09l.41-.41c-.07.04-.2.16-.36.32Zm-1.49,1.53l-.22.23-.68.68-.09.08c.68.22,1.19,0,1.99-1.08.26-.35.27-.94.44-1.35l-1.44,1.44Zm80.32,12.76c-.07-.04-.14-.08-.21-.11.24.62.47,1.23.7,1.84.03-.1.05-.19.07-.3.08-.53,0-1.09-.56-1.43Zm-10.17,4.39v.11c.06-.04.13-.07.19-.11h-.19Zm-34.26-2.33c-1.03,1.02-1.83,1.76-2.28,2.11-.15.12-.26.19-.33.22h3.22v-2.93c-.21.21-.41.41-.61.6Zm-34.4-16.35s-.04.06-.05.09l.41-.41c-.07.04-.2.16-.36.32Zm-1.49,1.53l-.22.23-.68.68-.09.08c.68.22,1.19,0,1.99-1.08.26-.35.27-.94.44-1.35l-1.44,1.44Zm-13.38-6.09c.24.32.64.59,1.26.82-.59-.26-1-.53-1.26-.82Zm0-1.97c.07-.14.15-.3.24-.46.11-.2.22-.4.33-.6-.23.37-.43.72-.57,1.06Zm1.26,2.79c1,.48,1.97,1.02,2.94,1.58-.87-.7-1.9-1.12-2.94-1.58Zm6.5,3.75c1.19.73,2.39,1.43,3.64,2.04-1.22-.68-2.42-1.36-3.64-2.04Zm41.51,16.34c-1.03,1.02-1.83,1.76-2.28,2.11-.15.12-.26.19-.33.22h3.22v-2.93c-.21.21-.41.41-.61.6Zm-3.06,2.33c.12.07.25.14.37.21v-.21h-.37Zm47.49-4.39c-.07-.04-.14-.08-.21-.11.24.62.47,1.23.7,1.84.03-.1.05-.19.07-.3.08-.53,0-1.09-.56-1.43Zm-10.17,4.39v.11c.06-.04.13-.07.19-.11h-.19Zm-68.66-18.68c.16-.16.29-.28.36-.32l.04-.03c-.2.05-.32.18-.4.35Zm31.34,18.68c.12.07.25.14.37.21v-.21h-.37Zm-31.34-18.68c.16-.16.29-.28.36-.32l.04-.03c-.2.05-.32.18-.4.35Zm31.34,18.68c.12.07.25.14.37.21v-.21h-.37Zm23.37-65.88c-1.22-2.56-2.49-5.12-3.89-7.61v9.02c1.74,0,3.48.37,5.08,1.11-.4-.84-.79-1.68-1.19-2.52Zm-23.37,65.88c.12.07.25.14.37.21v-.21h-.37Zm-12.79-43.55c1.05.4,2.2.48,3.6-.05,0-.01.03-.01.04-.02-1.27.21-2.49.34-3.64.07Zm-1.88-3.45c.24-.33.46-.66.5-1-.16.33-.33.67-.5,1Zm-.78,1.23c-.14.23-.2.5.17.77-.21-.26-.24-.51-.17-.77Zm-7.63-8.57c.45.26.9.5,1.35.72,1.69.83,3.1,2.13,4.91,2.75.44.15.86.44,1.3.71-1.81-1.32-4.96-2.81-7.56-4.18Zm-8.26,35.66c.16-.16.29-.28.36-.32l.04-.03c-.2.05-.32.18-.4.35Zm84.76-26.31c-.04-.07-.1-.13-.16-.19l.31.44c-.05-.08-.1-.16-.15-.25Zm-53.42,44.99c.12.07.25.14.37.21v-.21h-.37Zm-31.34-18.68c.16-.16.29-.28.36-.32l.04-.03c-.2.05-.32.18-.4.35Z"/>
      <polygon class="cls-13" points="263.43 158.86 263.43 191.72 256.32 191.72 256.32 154.8 263.43 158.86"/>
      <path class="cls-12" d="m286.8,175.56l-7.68,7.68c-2.33,2.33-3.49,5.4-3.49,8.48h-12.2v-32.86l11.55,6.59c-.23.37-.43.72-.57,1.06-.1.22-.17.42-.22.62-.14.46-.12.83.09,1.16.04.06.08.13.13.19.24.32.64.59,1.26.82,1,.48,1.97,1.02,2.94,1.58l.02.02c.21.16.41.35.59.55.08.09.25.08.36.15.85.47,1.7.95,2.55,1.43.02.01.03.01.04.02,1.19.73,2.39,1.43,3.64,2.04.02.01.04.02.05.03.37.21.68.36.94.44Z"/>
      <path class="cls-24" d="m275.64,318.77l-14.9,6.74h-6.42v-106.5c2.83,2.07,5.9,4.02,9.11,5.91v93.85h12.21Z"/>
      <path class="cls-36" d="m320.74,259.85v43.96c-11.88,1.79-23.57,5.22-34.74,10.27l-10.36,4.69h-12.21v-93.85c8.73,5.14,18.46,9.75,26.87,14.6.58.34,1.14.67,1.71,1.01,9.92,5.91,19.39,12.53,28.73,19.32Z"/>
      <path class="cls-13" d="m423.88,270.57v54.94h-4.3l-14.48-6.74h12.75v-52.71c1.95,1.59,3.96,3.09,6.03,4.51Z"/>
      <path class="cls-3" d="m417.85,266.06v52.71h-12.75l-8.83-4.11c-8.94-4.16-18.24-7.27-27.71-9.32-4.27-.94-8.58-1.65-12.91-2.15v-52.54h.26v-.02c.17,0,.33-.02.47-.06.1-.01.2-.04.29-.09t.02,0c.07-.02.13-.05.19-.09.04-.02.07-.04.11-.07.06-.03.11-.07.16-.13.04-.02.07-.05.09-.09.07-.06.12-.13.16-.2.03-.04.05-.08.06-.13.05-.07.08-.14.1-.21.05-.14.09-.29.11-.46.01-.04.01-.08.01-.12.02-.13.03-.28.03-.43,0-1.66.01-3.32.01-4.98l24.1-24.1c.64,1.25,1.29,2.49,1.96,3.73.52.95,1.04,1.9,1.57,2.85,1.1,1.96,2.24,3.91,3.42,5.83.57.94,1.16,1.88,1.75,2.81.26.41.52.81.78,1.21.58.89,1.16,1.77,1.76,2.64.04.06.08.12.12.18.61.89,1.22,1.77,1.85,2.65.34.49.69.98,1.05,1.47.29.4.58.8.88,1.19.57.76,1.14,1.52,1.71,2.26.41.52.82,1.04,1.23,1.55,1.52,1.9,3.08,3.76,4.7,5.56.41.46.82.92,1.24,1.37.42.45.84.9,1.26,1.34,2.11,2.23,4.3,4.37,6.57,6.4.46.41.92.81,1.38,1.21s.92.79,1.39,1.18c.47.39.94.78,1.41,1.16Z"/>
      <path class="cls-13" d="m423.88,157.53v113.04c-2.07-1.42-4.08-2.92-6.03-4.51v-105.08l6.03-3.45Z"/>
      <path class="cls-12" d="m417.85,160.98v105.08c-.47-.38-.94-.77-1.41-1.16-.47-.39-.93-.78-1.39-1.18s-.92-.8-1.38-1.21c-2.27-2.03-4.46-4.17-6.57-6.4-.42-.44-.84-.89-1.26-1.34-.42-.45-.83-.91-1.24-1.37-1.62-1.8-3.18-3.66-4.7-5.56-.41-.51-.82-1.03-1.23-1.55-.57-.74-1.14-1.5-1.71-2.26-.3-.39-.59-.79-.88-1.19-.36-.49-.71-.98-1.05-1.47-.63-.88-1.24-1.76-1.85-2.65-.04-.06-.08-.12-.12-.18-.6-.87-1.18-1.75-1.76-2.64-.26-.4-.52-.8-.78-1.21-.59-.93-1.18-1.87-1.75-2.81-1.18-1.92-2.32-3.87-3.42-5.83-.53-.95-1.05-1.9-1.57-2.85-.67-1.24-1.32-2.48-1.96-3.73l19.26-19.26c2.34-2.34,3.51-5.42,3.5-8.49,0-3.08-1.17-6.15-3.5-8.48l-6.34-6.34c1.81-1.04,3.6-2.12,5.41-3.16,1.94-1.11,3.88-2.22,5.95-3.09v-1.64l-.57-.97,12.32-7.06Z"/>
      <path class="cls-13" d="m263.43,79.54v39.12l-7.11-4.06v-36.22c2.38.35,4.75.74,7.11,1.16Z"/>
      <path class="cls-3" d="m340.1,118.23v9.02c-3.07,0-6.15,1.16-8.48,3.5l-16.82,16.82c-1.14,0-2.25.14-3.29.52-.02,0-.03.01-.04.01-1.27.21-2.49.34-3.64.07-.01-.01-.02-.01-.02-.01-.85-.33-1.65-.85-2.47-1.44-.21-.26-.24-.51-.17-.77h.01c.06-.1.13-.19.18-.27.22-.31.41-.63.59-.96.24-.33.46-.66.5-1,.03-.05.06-.09.07-.14.01-.02.02-.04.03-.07.01-.03.02-.06.02-.09.26-.74-.07-1.2-.79-1.51-.23-.1-.45-.21-.66-.34,0-.01-.01-.01-.02-.01-1.81-1.32-4.96-2.81-7.56-4.18-.09-.05-.19-.1-.28-.15-1.26-.76-2.49-1.61-3.7-2.44h-.28c-.18.3-.53.31-.81.44l-29.04-16.57v-39.12c2.86.52,5.7,1.09,8.53,1.71.08.01.15.03.23.05.57.12,1.13.25,1.7.39.56.12,1.12.25,1.68.39.31.07.63.14.95.23.93.22,1.86.45,2.78.69,1.08.27,2.16.56,3.24.85.93.25,1.86.51,2.78.77,1.22.35,2.44.71,3.66,1.08,1.06.33,2.13.66,3.19,1,1.16.37,2.32.75,3.48,1.15.71.24,1.41.48,2.11.73.68.23,1.35.47,2.03.72.91.32,1.82.66,2.72,1,.91.34,1.81.68,2.71,1.04.9.35,1.79.71,2.69,1.07,8.76,3.55,17.5,7.81,24.08,14.61,3.22,3.33,5.83,7.17,8.11,11.21Z"/>
      <polygon class="cls-13" points="423.88 57.94 423.88 117.3 417.85 120.75 417.85 65.82 406.47 65.82 423.88 57.94"/>
      <path class="cls-7" d="m417.85,65.82v54.93l-29.96,17.17c-.65-.91-1.41-.97-2.37-.18-.65.53-1.54.25-2.18.87-1.46,1.42-3.44,2.07-5.11,3.22-1.09.75-2.49,1.2-3.71,1.89-1.07.62-1.36,1.64-.73,2.69l.09.13.31.44.06.11v.02c.08.12.14.23.19.34.07.15.13.28.17.41.03.09.05.17.07.25.02.1.03.2.03.29,0,.59-.44,1.01-1.45,1.47-1.31.6-2.67,1.29-4.17,1.38l-20.5-20.5c-1.02-1.02-2.17-1.81-3.41-2.39-.4-.84-.79-1.68-1.19-2.52-1.22-2.56-2.49-5.12-3.89-7.61v-35.1c18.46-.06,36.9-3.98,54.1-11.76l12.27-5.55h11.38Z"/>
      <path class="cls-13" d="m273.25,65.82h-9.82v13.72c-2.36-.42-4.73-.81-7.11-1.16v-20.44l16.93,7.88Z"/>
      <path class="cls-9" d="m340.1,83.13v35.1c-2.28-4.04-4.89-7.88-8.11-11.21-6.58-6.8-15.32-11.06-24.08-14.61-.9-.36-1.79-.72-2.69-1.07-.9-.36-1.8-.7-2.71-1.04-.9-.34-1.81-.68-2.72-1-.68-.25-1.35-.49-2.03-.72-.7-.25-1.4-.49-2.11-.73-1.16-.4-2.32-.78-3.48-1.15-1.06-.34-2.13-.67-3.19-1-1.22-.37-2.44-.73-3.66-1.08-.92-.26-1.85-.52-2.78-.77-1.08-.3-2.16-.58-3.24-.85-.93-.25-1.85-.48-2.78-.69-.32-.09-.64-.16-.95-.23-.56-.14-1.12-.27-1.68-.39-.57-.14-1.13-.27-1.7-.39-.08-.02-.15-.04-.23-.05-2.83-.63-5.68-1.2-8.53-1.71v-13.72h9.82l10.68,4.97c17.8,8.28,36.99,12.4,56.17,12.34Z"/>
      <path class="cls-13" d="m263.43,191.72v32.13c-2.43-1.55-4.81-3.16-7.11-4.84v-27.29h7.11Z"/>
      <path class="cls-9" d="m320.74,241.82v18.03c-9.34-6.79-18.81-13.41-28.73-19.32-.57-.34-1.13-.67-1.71-1.01-8.85-5.19-18.19-10.1-26.87-15.67v-32.13h12.2c-.01,3.07,1.16,6.15,3.49,8.49l39.67,39.67,1.95,1.94Z"/>
      <path class="cls-19" d="m329.57,250.66c-2.94-.01-5.88-.01-8.83-.01h8.83Z"/>
      <path class="cls-17" d="m357.72,243.57c0,1.66-.01,3.32-.01,4.98,0,.15,0,.3-.03.43,0,.04,0,.08-.01.12-.02.17-.06.32-.11.46-.02.07-.05.14-.1.21,0,.05-.03.09-.06.13-.04.07-.09.14-.16.2-.02.04-.05.07-.09.09-.05.06-.1.1-.16.13-.04.03-.07.05-.11.07-.06.04-.12.07-.19.09t-.02,0c-.09.04-.19.07-.29.09-.14.04-.3.06-.47.06v-5.25l1.81-1.81Z"/>
      <line class="cls-19" x1="355.65" y1="324.1" x2="355.65" y2="303.19"/>
      <line class="cls-19" x1="355.65" y1="250.65" x2="355.65" y2="249.65"/>
      <line class="cls-19" x1="320.74" y1="325.54" x2="320.74" y2="325.51"/>
      <line class="cls-19" x1="405.35" y1="168.14" x2="404.81" y2="168.45"/>
      <line class="cls-19" x1="387.89" y1="137.92" x2="386.21" y2="138.88"/>
      <line class="cls-19" x1="298.47" y1="138.65" x2="292.88" y2="135.46"/>
      <line class="cls-19" x1="282.41" y1="169.69" x2="274.98" y2="165.45"/>
      <path class="cls-17" d="m289.28,173.04c.16-.16.29-.28.36-.32l.04-.03c-.2.05-.32.18-.4.35Zm9.59,3.59c-.58-1.68-1.5-3-2.72-4.07,1.18,1.35,1.99,3.03,2.93,4.63-.07-.18-.14-.37-.21-.56Zm6.3-30.68c-.14.23-.2.5.17.77-.21-.26-.24-.51-.17-.77Zm.78-1.23c.24-.33.46-.66.5-1-.16.33-.33.67-.5,1Zm-8.41-7.34c.45.26.9.5,1.35.72,1.69.83,3.1,2.13,4.91,2.75.44.15.86.44,1.3.71-1.81-1.32-4.96-2.81-7.56-4.18Zm-5.07-2.15l.41.23.4-.67c-.18.3-.53.31-.81.44Zm-10.3,37.82c1.19.73,2.39,1.43,3.64,2.04-1.22-.68-2.42-1.36-3.64-2.04Zm-6.5-3.75c1,.48,1.97,1.02,2.94,1.58-.87-.7-1.9-1.12-2.94-1.58Zm-1.26-2.79c.07-.14.15-.3.24-.46.11-.2.22-.4.33-.6-.23.37-.43.72-.57,1.06Zm0,1.97c.24.32.64.59,1.26.82-.59-.26-1-.53-1.26-.82Zm33.42-20.31c1.05.4,2.2.48,3.6-.05,0-.01.03-.01.04-.02-1.27.21-2.49.34-3.64.07Zm13.16,43.55h-.37c-2.24-1.26-4.31-2.4-6.37-3.58-3.63-2.11-7.25-4.25-10.9-6.34,6.53,4.02,19.05,16.58,17.64,9.92Zm-1.18-43.37c1.01.39,2,.82,3.16.72.49-.04.97-.1,1.45-.18-1.55.03-3.08-.23-4.61-.54Zm11.81-1.53c1.31-.62,2.56-1.35,3.83-2.06-1.29.55-2.54,1.37-3.83,2.06Zm2.8,13.98c.62.37,1.24.74,1.86,1.1-.63-.46-1.26-.89-1.86-1.1Zm2.17-16.45c.4-.1.88-.18,1.38-.22-.47.01-.93.09-1.38.22Zm2.16,19.03c.09.06.19.11.28.17.43.26.75.06,1.03-.13.01-.01.03-.02.04-.03-.44.17-.89.14-1.35-.01Zm3.01,1.76l-1.66-1.75v4.64c.08.06.19.91.27,1.92,1.54-2.42,2.22-4.23,1.39-4.81Zm.14-19.65c.46.88.39,2.29-.63,4.45,1.21-1.67,1.66-3.32.63-4.45Z"/>
      <path class="cls-10" d="m306.57,143.42s-.01.06-.02.09c-.01.03-.02.05-.03.07-.01.05-.04.09-.07.14l-19.65,31.84c-.32-.14-.63-.29-.94-.44-.01-.01-.03-.02-.05-.03-1.22-.68-2.42-1.36-3.64-2.04-.01-.01-.02-.01-.04-.02-1.17-.71-2.33-1.44-3.5-2.13l-.02-.02c-.87-.7-1.9-1.12-2.94-1.58-.59-.26-1-.53-1.26-.82-.05-.06-.09-.13-.13-.19-.18-.35-.19-.74-.09-1.16.05-.2.12-.4.22-.62.07-.14.15-.3.24-.46.11-.2.22-.4.33-.6l17.9-29.99.4-.67h.28c.59.69,2.01,1.53,3.7,2.44.09.05.19.1.28.15.45.26.9.5,1.35.72,1.69.83,3.1,2.13,4.91,2.75.44.15.86.44,1.3.71.01,0,.02,0,.02.01.95.68,1.52,1.32,1.45,1.85Z"/>
      <polygon class="cls-1" points="263.43 118.66 263.43 158.86 256.32 154.8 256.32 114.6 263.43 118.66"/>
      <polygon class="cls-2" points="292.88 135.46 274.98 165.45 263.43 158.86 263.43 118.66 292.47 135.23 292.88 135.46"/>
      <path class="cls-8" d="m341.27,149.94s-.01.01-.01.02c-.88,1.21-2.16,2.43-3.55,3.46-.53.4-6.14,4.3-6.39,4.9-1.08.55,2.22,1.95,3.1,2.48.62.37,1.24.74,1.86,1.1.02.02.03.03.05.03.8.59,1.62,1.2,2.42,1.45.09.06.19.11.28.17.43.26.75.06,1.03-.13.01-.01.03-.02.04-.03v4.64c.08.06.19.91.27,1.92h0c-.36.57-.76,1.16-1.19,1.77-.62.87-1.31,1.79-2.06,2.73-.1-.14-.21-.27-.34-.38-.06-.05-.12-.1-.19-.14-.07-.04-.14-.08-.22-.12-.04-.02-.08-.04-.13-.05-.08-.03-.17-.06-.25-.08-.04,0-.07,0-.11-.02-.06-.01-.12-.02-.17-.02-.33-.04-.7-.03-1.13.02-1.24.15-1.86,1.03-1.86,2.65v25.18c0,1.9-.47,2.56-1.79,2.56s-1.5-.31-1.5-2.41v-20.67c0-.27.02-.55,0-.82-.11-1.91-1.17-2.97-2.92-2.93-1.66.04-2.22.76-2.22,2.93v8.64c-.21.21-.41.41-.61.6-1.03,1.02-1.83,1.76-2.28,2.11-.15.12-.26.19-.33.22h-.45c-2.24-1.26-4.31-2.4-6.37-3.58-3.63-2.11-7.25-4.25-10.9-6.34-.27-.16-.53-.31-.8-.46-1.53-1.04-2.53-2.51-3.42-4.05-.02-.02-.03-.03-.03-.05,0-.01-.01-.01-.01-.02s-.01-.01-.01-.02h0c-.07-.19-.14-.38-.21-.57-.58-1.68-1.5-3-2.72-4.07h-.01s-.01-.02-.01-.02c-.01-.02-.02-.03-.03-.04-.94-1.05-2.12-1.9-3.75-2.35-.01,0-.02-.01-.03-.01-.03-.01-.06-.02-.08-.02l-2.56,2.57c-.2.05-.32.18-.4.35-.39.38-.98,1-1.49,1.53l-.22.23-.68.68-.09.08,19.65-31.84c-.16.33-.33.67-.5,1-.31.41-.66.82-.77,1.22h-.01c-.14.24-.2.51.17.78.77.8,1.6,1.23,2.47,1.44,0,0,.01,0,.02.01,1.05.4,2.2.48,3.6-.05,0-.01.03-.01.04-.02,0,0,.02-.01.04-.01,1.07-.18,2.18-.42,3.29-.52,1.7.09,3.34.45,4.98.77h.01s.01.01.02.01c1.01.39,2,.82,3.16.72.49-.04.97-.1,1.45-.18.01-.01.02-.01.03-.01,1.3-.02,2.63-.27,3.98-.88,1.08-.17,2.11-.61,3.11-1.14.03-.01.05-.02.08-.04,1.31-.62,2.56-1.35,3.83-2.06.29-.13.59-.24.88-.34.08-.03.17-.05.26-.07.4-.1.88-.18,1.38-.22.09-.02.17-.02.25-.02.61,0,1.23.11,1.88.36.82.25,1.4.59,1.79,1,0,.01.01.01.01.02.46.88.39,2.29-.63,4.45Z"/>
      <path class="cls-19" d="m289.23,173.13c-.17.41-.18,1-.44,1.35-.8,1.08-1.31,1.3-1.99,1.08l.09-.08.68-.68.22-.23,1.44-1.44Z"/>
      <path class="cls-19" d="m320.62,191.72c.12.07.25.14.37.21v-.21h-.37Zm37.32,0v.11c.06-.04.13-.07.19-.11h-.19Zm10.17-4.39c-.07-.04-.14-.08-.21-.11.24.62.47,1.23.7,1.84.03-.1.05-.19.07-.3.08-.53,0-1.09-.56-1.43Z"/>
      <path class="cls-17" d="m350.64,250.65c-3.51,0-7.03.01-10.54.01h-10.54s21.08-.01,21.08-.01Z"/>
      <path class="cls-15" d="m404.58,191.72c.01,3.07-1.16,6.15-3.5,8.49l-45.17,45.17v-9.01h-35.17v5.45l-1.95-1.94-39.67-39.67c-2.33-2.34-3.5-5.42-3.49-8.49,0-3.08,1.16-6.15,3.49-8.48l7.68-7.68c.68.22,1.19,0,1.99-1.08.26-.35.27-.94.44-1.35l.41-.41.04-.03,2.56-2.57s.05.01.08.02c.01,0,.02.01.03.01.32.11.6.34.91.5,1.05.52,2.01,1.12,2.84,1.85.01.01.02.02.03.04h.01s.01.02.01.02c1.18,1.35,1.99,3.03,2.93,4.63h0s.01.02.01.03.01.01.01.02c0,.02.01.03.03.05.68,1.69,1.73,3.09,3.42,4.05.27.15.53.3.8.46,6.53,4.02,19.05,16.58,17.64,9.92,0,.03.03.03.08,0h3.22v14.3c0,.41.03.82-.02,1.23-.1.74-.42,1.45-1.15,1.69-.7.22-1.43.05-1.92-.64-.18-.26-.45-.46-.65-.7-2.61-3.18-6.12-5.02-9.86-6.43-.81-.31-1.98-.64-2.87.25-1.42,1.44-1.24,3.48.55,4.54,2.99,1.77,5.78,3.8,8.2,6.31,1.78,1.84,3.33,3.95,3.72,6.48.51,3.26,2.07,5.74,4.45,7.85,1.18,1.04,1.66,2.41,1.75,3.93.04.73.09,1.47,0,2.19-.13,1.12.23,1.46,1.39,1.45,4.08-.04,8.15-.04,12.22-.03,2.04,0,4.09,0,6.13-.01,1.21-.01,2.83.53,3.53-.24.6-.67.2-2.25.2-3.43,0-2.34.82-4.43,2.34-6.08,1.69-1.85,2.37-3.91,2.36-6.33-.02-5.29,0-10.58,0-15.87v-10.46h3.28v.11c.06-.04.13-.07.19-.11,2.64-1.52,5.1-2.94,7.56-4.35.42-.24.85-.37,1.28-.37.1,0,.2.01.3.02h.01c.08.01.16.03.23.05.13.04.26.08.39.15.24.62.47,1.23.7,1.84h0c-.03.14-.07.26-.11.37-.12.32-.22.64-.32.96-.08.25-.16.5-.22.75,0,0,0,.01-.01.02-.04.19-.09.37-.13.56-.12.45-.21.9-.28,1.36-.04.21-.07.42-.1.64-.04.25-.08.5-.1.75-.18,1.63-.18,3.27-.06,4.92.05.74.14,1.48.24,2.23.23,1.62,1.25,2.97,3.12,2.72,1.39-.18,2.35-1.25,2.34-2.9,0-.43,0-.87.02-1.3h0c0-.37.02-.72.04-1.08,0-.22.01-.45.04-.68.01-.32.04-.64.07-.96,0-.05.01-.1.02-.16.02-.25.05-.51.08-.77.11-.92.26-1.84.46-2.75.04-.18.08-.37.13-.55.05-.23.1-.45.17-.68.06-.26.14-.53.22-.79.05-.2.12-.4.18-.6.88-2.69,2.08-5.25,4.46-7.09,1.64-1.28,3.07-3,3.31-5.07.42-3.62,2.61-5.58,5.63-6.87.81-.35.61-.76.38-1.09-.45-.64-.88-1.29-1.29-1.95l7.85,7.85,6.34,6.34c2.33,2.33,3.5,5.4,3.5,8.48Z"/>
      <path class="cls-17" d="m298.87,176.63c.07.19.14.38.21.56-.94-1.6-1.75-3.28-2.93-4.63,1.22,1.07,2.14,2.39,2.72,4.07Z"/>
      <path class="cls-17" d="m303.35,181.8c3.65,2.09,7.27,4.23,10.9,6.34,2.06,1.18,4.13,2.32,6.37,3.58.12.07.25.14.37.21v-.21c1.41,6.66-11.11-5.9-17.64-9.92Z"/>
      <path class="cls-8" d="m354.66,185.62v16.56c0,5.29-.02,10.58,0,15.87.01,2.42-.67,4.48-2.36,6.33-1.52,1.65-2.34,3.74-2.34,6.08,0,1.18.4,2.76-.2,3.43-.7.77-2.32.23-3.53.24-2.04.01-4.09.01-6.13.01-4.07-.01-8.14-.01-12.22.03-1.16,0-1.52-.33-1.39-1.45.09-.72.04-1.46,0-2.19-.09-1.52-.57-2.89-1.75-3.93-2.38-2.11-3.94-4.59-4.45-7.85-.39-2.53-1.94-4.64-3.72-6.48-2.42-2.51-5.21-4.54-8.2-6.31-1.79-1.06-1.97-3.1-.55-4.54.89-.89,2.06-.56,2.87-.25,3.74,1.41,7.25,3.25,9.86,6.43.2.24.47.44.65.7.49.69,1.22.86,1.92.64.73-.24,1.05-.95,1.15-1.69.05-.41.02-.82.02-1.23v-25.87c0-2.17.56-2.89,2.22-2.93,1.75-.04,2.81,1.02,2.92,2.93.02.27,0,.55,0,.82v20.67c0,2.1.19,2.41,1.5,2.41s1.79-.66,1.79-2.56v-25.18c0-1.62.62-2.5,1.86-2.65.43-.05.8-.06,1.13-.02.05,0,.11.01.17.02.04.01.07.01.11.02.08.02.17.05.25.08.05.01.09.03.13.05.08.04.15.08.22.12.07.04.13.09.19.14.13.11.24.24.34.38.06.08.11.16.16.25.05.07.09.15.13.23.05.1.1.22.14.34.05.12.1.25.14.39.17.55.18,1.06.18,1.6.01,4.82,0,9.64,0,14.46,0,3.39,0,6.78.01,10.18.01.56-.17,1.18.27,1.69.4.45.93.92,1.5.66.14-.06.27-.13.39-.21.02,0,.04-.02.06-.03.33-.2.62-.47.8-.81.03-.04.06-.09.07-.13.04-.07.07-.15.09-.22.04-.1.06-.2.08-.31.06-.36.02-.73.02-1.1v-21.62c0-1,.2-1.9,1.23-2.37.98-.44,1.92-.34,2.78.3.91.68,1.1,1.64,1.1,2.71-.01,3.76-.01,7.51-.01,11.26v9.82c.01.54.01,1.11.16,1.62.17.56.59,1.07,1.21,1.14.64.07,1.17-.22,1.54-.84.3-.51.37-1,.37-1.55v-16.97c0-1.91.58-2.73,2.06-2.79,2.09-.08,2.91.63,3.05,2.65.02.27.01.54.01.82Z"/>
      <line class="cls-19" x1="256.32" y1="191.72" x2="255.57" y2="191.72"/>
      <polygon class="cls-13" points="423.88 57.94 406.47 65.82 273.25 65.82 256.32 57.94 423.88 57.94"/>
      <path class="cls-5" d="m406.47,65.82l-12.27,5.55c-17.2,7.78-35.64,11.7-54.1,11.76-19.18.06-38.37-4.06-56.17-12.34l-10.68-4.97h133.22Z"/>
      <polygon class="cls-13" points="419.58 325.51 260.74 325.51 275.64 318.77 405.1 318.77 419.58 325.51"/>
      <path class="cls-6" d="m405.1,318.77h-129.46l10.36-4.69c11.17-5.05,22.86-8.48,34.74-10.27,6.42-.98,12.89-1.47,19.36-1.49,5.19-.02,10.38.27,15.55.87,4.33.5,8.64,1.21,12.91,2.15,9.47,2.05,18.77,5.16,27.71,9.32l8.83,4.11Z"/>
      <line class="cls-19" x1="260.74" y1="325.51" x2="256.32" y2="327.51"/>
      <line class="cls-19" x1="423.88" y1="327.51" x2="419.58" y2="325.51"/>
      <g>
        <path class="cls-26" d="m341.76,165.14l-1.66-1.75v4.64c.08.06.19.91.27,1.92,1.54-2.42,2.22-4.23,1.39-4.81Zm43.76-27.4c-.65.53-1.54.25-2.18.87-1.46,1.42-3.44,2.07-5.11,3.22-1.09.75-2.49,1.2-3.71,1.89-1.07.62-1.36,1.64-.73,2.69l14.1-8.49c-.65-.91-1.41-.97-2.37-.18Zm9.22,39.16c1.81-1.04,3.6-2.12,5.41-3.16,1.94-1.11,3.88-2.22,5.95-3.09v-1.64l-11.36,7.89Z"/>
        <g>
          <path class="cls-39" d="m342.82,164.08c-.55-.58-1.11-1.17-1.66-1.75-.9-.95-2.56-.22-2.56,1.06,0,1.53-.06,3.08,0,4.61.01.27.07.55.2.79.08.13.46.68.06,0s-.17-.35-.16-.25c0,.06.03.13.04.19,0,.05.02.09.02.14.03.2-.01-.11-.02-.15.01.12.03.23.04.35.03.29.06.59.08.88.05.64.43,1.29,1.1,1.45s1.33-.11,1.69-.69c.71-1.12,1.42-2.32,1.78-3.6.16-.58.21-1.17.11-1.76-.12-.65-.52-1.12-1.03-1.5-.63-.47-1.7-.12-2.05.54-.41.78-.14,1.55.54,2.05-.24-.19-.3-.24-.2-.15.1.1.05.04-.15-.2.02.02.03.05.05.08.06.13.03.05-.1-.23,0,.05.03.12.04.16.03.07-.01-.46-.03-.16,0,.07-.02.17-.01.24.04-.29.05-.36.03-.21,0,.05-.02.09-.03.13-.04.17-.09.34-.15.51-.04.11-.08.21-.12.32-.12.3.15-.32,0-.02-.12.25-.23.49-.36.73-.28.53-.59,1.04-.91,1.55l2.8.76c-.05-.59-.11-1.17-.19-1.76-.07-.47-.19-.85-.51-1.22l.44,1.06v-4.64l-2.56,1.06c.55.58,1.11,1.17,1.66,1.75s1.58.59,2.12,0,.58-1.51,0-2.12Z"/>
          <path class="cls-39" d="m384.76,136.44c-.49.34-1.2.32-1.75.59-.64.31-1.11.9-1.7,1.29-1.27.83-2.66,1.45-3.93,2.28s-2.9,1.22-4.13,2.19c-1.4,1.11-1.58,2.86-.75,4.37.38.7,1.37.95,2.05.54,4.11-2.47,8.22-4.95,12.33-7.42.59-.36,1.18-.71,1.77-1.07.63-.38,1.04-1.4.54-2.05-.59-.76-1.27-1.4-2.29-1.46-.96-.06-1.71.41-2.44.98-.64.5-.52,1.6,0,2.12.63.63,1.48.5,2.12,0,.41-.32.1,0,.01-.12l.54-2.05c-4.11,2.47-8.22,4.95-12.33,7.42-.59.36-1.18.71-1.77,1.07l2.05.54c-.15-.28-.19-.32-.02-.48.39-.38,1.06-.59,1.55-.82,1.22-.56,2.3-1.24,3.47-1.9,1.08-.61,2.21-1.13,3.22-1.87.39-.28.81-.78,1.24-.93.61-.21,1.19-.23,1.74-.61.66-.46.97-1.31.54-2.05-.38-.66-1.38-1-2.05-.54Z"/>
          <path class="cls-39" d="m395.5,178.19c3.73-2.15,7.38-4.56,11.36-6.25.47-.2.74-.82.74-1.3v-1.64c0-1.07-1.3-1.96-2.26-1.3-3.31,2.3-6.62,4.6-9.94,6.9-.47.33-.95.66-1.42.99-.66.46-.97,1.31-.54,2.05.38.66,1.38,1,2.05.54,3.31-2.3,6.62-4.6,9.94-6.9.47-.33.95-.66,1.42-.99l-2.26-1.3v1.64l.74-1.3c-3.98,1.69-7.63,4.1-11.36,6.25-1.67.96-.16,3.56,1.51,2.59Z"/>
        </g>
      </g>
      <g>
        <polygon class="cls-24" points="423.88 117.3 423.88 157.53 417.85 160.98 417.85 120.75 423.88 117.3"/>
        <path class="cls-39" d="m422.38,117.3v40.23l.74-1.3c-2.01,1.15-4.02,2.3-6.03,3.45l2.26,1.3v-40.23l-.74,1.3c2.01-1.15,4.02-2.3,6.03-3.45,1.68-.96.17-3.55-1.51-2.59-2.01,1.15-4.02,2.3-6.03,3.45-.46.26-.74.77-.74,1.3,0,11.76,0,23.52,0,35.29v4.94c0,1.14,1.27,1.86,2.26,1.3,2.01-1.15,4.02-2.3,6.03-3.45.46-.26.74-.77.74-1.3v-40.23c0-1.93-3-1.93-3,0Z"/>
      </g>
      <g>
        <polygon class="cls-25" points="417.85 120.75 417.85 160.98 405.53 168.04 387.89 137.92 417.85 120.75"/>
        <path class="cls-39" d="m416.35,120.75c0,11.76,0,23.52,0,35.29v4.94l.74-1.3c-4.11,2.35-8.21,4.71-12.32,7.06l2.05.54c-5.16-8.81-10.31-17.61-15.47-26.42-.72-1.23-1.45-2.47-2.17-3.7l-.54,2.05c8.74-5.01,17.47-10.01,26.21-15.02,1.25-.72,2.5-1.43,3.75-2.15,1.67-.96.17-3.55-1.51-2.59-8.74,5.01-17.47,10.01-26.21,15.02-1.25.72-2.5,1.43-3.75,2.15-.7.4-.95,1.36-.54,2.05,5.16,8.81,10.31,17.61,15.47,26.42.72,1.23,1.45,2.47,2.17,3.7.41.7,1.35.94,2.05.54,4.11-2.35,8.21-4.71,12.32-7.06.46-.26.74-.77.74-1.3v-40.23c0-1.93-3-1.93-3,0Z"/>
      </g>
      <g>
        <path class="cls-37" d="m388.18,171c.23.33.43.74-.38,1.09-3.02,1.29-5.21,3.25-5.63,6.87-.24,2.07-1.67,3.79-3.31,5.07-2.38,1.84-3.58,4.4-4.46,7.09-.06.2-.13.4-.18.6-.08.26-.16.53-.22.79-.07.23-.12.45-.17.68-.05.18-.09.37-.13.55-.2.91-.35,1.83-.46,2.75-.03.26-.06.52-.08.77-.01.06-.02.11-.02.16-.03.32-.06.64-.07.96-.03.23-.04.46-.04.68-.03.36-.04.71-.04,1.07h0c-.02.44-.02.88-.02,1.31,0,1.65-.95,2.72-2.34,2.9-1.87.25-2.89-1.1-3.12-2.72-.1-.75-.19-1.49-.24-2.23-.12-1.65-.12-3.29.06-4.92.02-.25.06-.5.1-.75.03-.22.06-.43.1-.64.07-.46.16-.91.28-1.36.04-.19.09-.37.13-.56.01-.01.01-.02.01-.02.07-.25.14-.5.22-.75.1-.32.2-.64.32-.96.04-.11.08-.23.11-.36h0c.03-.11.05-.2.07-.31.08-.53,0-1.09-.56-1.43-.07-.04-.14-.08-.21-.11-.13-.07-.26-.11-.39-.15-.07-.02-.15-.04-.23-.05h-.01c-.1-.01-.2-.02-.3-.02-.43,0-.86.13-1.28.37-2.46,1.41-4.92,2.83-7.56,4.35h-3.47v-6.1c0-.28.01-.55-.01-.82-.14-2.02-.96-2.73-3.05-2.65-1.48.06-2.06.88-2.06,2.79v16.97c0,.55-.07,1.04-.37,1.55-.37.62-.9.91-1.54.84-.62-.07-1.04-.58-1.21-1.14-.15-.51-.15-1.08-.16-1.62v-9.82c0-3.75,0-7.5.01-11.26,0-1.07-.19-2.03-1.1-2.71-.86-.64-1.8-.74-2.78-.3-1.03.47-1.23,1.37-1.23,2.37v21.62c0,.37.04.74-.02,1.1-.02.11-.04.21-.08.31-.02.07-.05.15-.09.22-.01.04-.04.09-.07.13-.18.34-.47.61-.8.81-.02.01-.04.03-.06.03-.12.08-.25.15-.39.21-.57.26-1.1-.21-1.5-.66-.44-.51-.26-1.13-.27-1.69-.01-3.4-.01-6.79-.01-10.18,0-4.82.01-9.64,0-14.46,0-.54-.01-1.05-.18-1.6-.04-.14-.09-.27-.14-.39-.04-.12-.09-.24-.14-.34-.04-.08-.08-.16-.13-.23-.05-.09-.1-.17-.16-.25.75-.94,1.44-1.86,2.06-2.73.43-.61.83-1.2,1.19-1.76h0c1.54-2.43,2.22-4.24,1.39-4.82l-1.66-1.75c3.62-2.48,7.67-4.21,11.35-6.61,1.41-.92,2.89-1.73,4.37-2.55.73-.4,1.45-.81,2.17-1.24,2.58-1.55,5.31-2.77,8.51-2.09.55.12,1.11.27,1.69.34.31.03.61.04.9,0,1.5-.09,2.86-.78,4.17-1.38,1.01-.46,1.45-.88,1.45-1.47,0-.09,0-.19-.03-.29-.02-.08-.04-.16-.07-.25-.04-.13-.1-.26-.17-.41-.05-.11-.11-.22-.18-.34l20.48,29.79-7.85-7.85c.41.66.84,1.31,1.29,1.95Z"/>
        <path class="cls-39" d="m386.88,171.76l.16-.96c-.21.09-.41.18-.61.28-.2.09-.39.19-.59.3-.47.25-.92.54-1.34.85-.96.7-1.78,1.53-2.43,2.53-1.34,2.07-1.01,4.68-2.56,6.6-.84,1.03-1.98,1.74-2.89,2.69s-1.62,2-2.21,3.13c-1.21,2.34-1.98,4.95-2.41,7.55-.2,1.21-.34,2.44-.42,3.67-.07,1.09.19,2.69-.19,3.71-.3.8-1.37,1.08-1.97.43-.73-.8-.62-2.63-.68-3.62-.17-2.93.14-5.87.98-8.43.32-.98.65-1.7.4-2.74-.31-1.28-1.56-2.11-2.84-2.21-1.48-.11-2.68.74-3.9,1.45-1.59.91-3.18,1.83-4.77,2.74-.27.15-.57.3-.82.47.06-.04.52,0,.08.03-.36.03-.74,0-1.1,0h-2.1l1.5,1.5v-4.59c0-1.78.25-3.96-1.09-5.35-1.57-1.63-5.17-1.64-6.41.41-.71,1.18-.62,2.62-.62,3.94v15.28c0,.41.06.95-.17,1.3-.09.14.1.19,0,.06-.19-.23-.1-.94-.11-1.22,0-.11,0-.22,0-.33-.01-3.14,0-6.29,0-9.43,0-3.77.09-7.55.01-11.31-.03-1.52-.43-2.93-1.69-3.89s-3-1.16-4.45-.42c-2.66,1.37-1.97,5.42-1.97,7.92v16.23c0,.35,0,.69,0,1.04,0,.15.01.31,0,.46,0,.22,0,.45-.06.63-.02.06-.24.25-.29.29.03-.02.16.21.1-.04-.2-.72-.03-1.73-.03-2.49,0-1.05,0-2.1,0-3.15,0-2.03,0-4.05,0-6.08,0-4.16,0-8.31,0-12.47,0-1.71,0-3.32-.96-4.81l-.23,1.82c.62-.78,1.23-1.57,1.82-2.37.55-.75,1.29-1.57,1.67-2.42l.15-.36c.03-.52.07-.53.1-.05.24-.36.44-.74.64-1.12.36-.69.73-1.44.92-2.2.52-2.15-.99-3.26-2.31-4.66l-.3,2.36c3.2-2.16,6.7-3.78,10-5.77s6.34-3.98,9.67-5.62c1.53-.75,3.2-1.23,4.91-1.05,1.9.2,3.43.74,5.36.23,1.48-.39,3.52-1.11,4.62-2.23s.81-2.61.13-3.89l-2.59,1.51c5.97,8.69,11.94,17.37,17.92,26.06.85,1.24,1.71,2.49,2.56,3.73l2.36-1.82c-2.62-2.62-5.23-5.23-7.85-7.85-1.18-1.18-3.28.35-2.36,1.82.42.66.84,1.31,1.29,1.95,1.09,1.57,3.7.08,2.59-1.51-.45-.64-.87-1.29-1.29-1.95l-2.36,1.82c2.62,2.62,5.23,5.23,7.85,7.85,1.17,1.17,3.35-.38,2.36-1.82-5.97-8.69-11.94-17.37-17.92-26.06-.85-1.24-1.71-2.49-2.56-3.73-1.09-1.58-3.5-.21-2.59,1.51.35.67.08.48.34.26-.22.2-.54.32-.8.45-.74.36-1.5.71-2.28.94-1.67.5-3.12-.13-4.79-.27-3.12-.27-5.94,1.13-8.55,2.67-2.83,1.66-5.66,3.36-8.5,4.99-3.01,1.73-6.14,3.25-9.03,5.19-.81.55-1,1.62-.3,2.36l1.3,1.37c.06.07.36.36.35.35-.27-.39.06-.26-.08-.06-.1.14-.14.48-.2.63-.22.58-.54,1.13-.85,1.67-.19.32-.43.62-.56.96-.09.18-.14.37-.13.58l-.02-.41c-1.03,1.16-1.83,2.62-2.79,3.85-.41.51-.62,1.21-.23,1.82.91,1.42.55,3.43.55,5.04,0,2.16,0,4.32,0,6.48,0,4.08,0,8.17,0,12.25,0,.97.03,1.94,0,2.91-.02.74-.06,1.45.28,2.13.8,1.59,2.61,2.21,4.14,1.31,1.68-1,1.87-2.56,1.86-4.33-.02-6.6,0-13.2,0-19.8,0-.68-.22-2.15.49-2.44,1.87-.77,1.61,2.29,1.61,3.17,0,2.12,0,4.24,0,6.36,0,3.76,0,7.51,0,11.27,0,1.57-.24,3.52.62,4.88.75,1.19,2.23,1.65,3.52,1.14,1.51-.6,2.09-2.17,2.14-3.68.1-2.74,0-5.49,0-8.23v-6.36c0-.73-.31-2.89.15-3.54.17-.23-.15.07.02-.05.23-.16.79-.11,1.03-.07.38.05.57.07.75.39.37.62.16,1.76.16,2.49v5.19c0,.81.69,1.5,1.5,1.5,1.21,0,2.68.25,3.87-.05.69-.17,1.38-.74,2-1.1.73-.42,1.47-.85,2.2-1.27s1.44-.83,2.16-1.24c.52-.3,1.77-1.34,2.38-1.04-.45-.22-.01.12-.07-.08.03.1-.19.71-.15.59-.14.45-.28.96-.4,1.37-.4,1.42-.69,2.83-.84,4.31-.17,1.7-.15,3.42,0,5.12.12,1.36.2,2.82.91,4.02,1.29,2.2,4.46,2.69,6.36.96s1.35-4.8,1.55-7.16c.22-2.7.83-5.44,1.89-7.94.54-1.29,1.26-2.54,2.23-3.56s2.22-1.84,3.14-3c1-1.26,1.53-2.6,1.8-4.18.21-1.26.63-2.44,1.51-3.39s1.94-1.53,3.07-2.08c1.35-.66,2.12-1.86,1.23-3.28-1.03-1.63-3.62-.12-2.59,1.51Z"/>
      </g>
      <g>
        <path class="cls-28" d="m369.09,151.25c-.29.03-.59.02-.9,0-.58-.07-1.14-.22-1.69-.34-3.2-.68-5.93.54-8.51,2.09-.72.43-1.44.84-2.17,1.24-1.48.82-2.96,1.63-4.37,2.55-3.68,2.4-7.73,4.13-11.35,6.61-.44.17-.89.14-1.35-.01-.8-.49-1.61-.97-2.42-1.45-.02,0-.03,0-.05-.03-.63-.46-1.26-.89-1.86-1.1-.88-.53-.71-.54.09-1.45,3.6-4.11,5.68-7.15,6.75-9.39t.01-.02c1.21-1.67,1.66-3.32.63-4.45,0-.01-.01-.01-.01-.02-.63-1.21-2.22-1.46-3.67-1.36-.08,0-.16,0-.25.02-.47.01-.93.09-1.38.22-.09.02-.18.04-.26.07-.34.09-.6.18-.74.26-.05.03-.09.05-.14.08-1.29.55-2.54,1.37-3.83,2.06-.03.02-.05.03-.08.04-.99.47-2.02.87-3.11,1.14-1.32.32-2.63.67-3.98.88-.01,0-.02,0-.03.01-1.55.03-3.08-.23-4.61-.54-.01,0-.01-.01-.02-.01h-.01c-.55-.21-1.11-.4-1.7-.49-1.09-.16-2.2-.28-3.28-.28l16.82-16.82c2.33-2.34,5.41-3.5,8.48-3.5,1.74,0,3.48.37,5.08,1.11,1.24.58,2.39,1.37,3.41,2.39l20.5,20.5Z"/>
        <path class="cls-39" d="m369.09,149.75c-1.58.06-3.1-.59-4.7-.54-1.49.05-2.91.43-4.28,1-2.71,1.14-5.32,2.81-7.85,4.3-2.87,1.7-5.73,3.38-8.65,5-.66.37-1.32.74-1.97,1.12-.55.33-1.3,1.02-1.92,1.2-.75.21-1.61-.6-2.23-.97-.66-.39-1.27-.85-1.95-1.22l-.36-.15c-.65-.5-.64-.05.01,1.32.21-.1.38-.42.54-.6.56-.64,1.11-1.29,1.65-1.95.91-1.11,1.8-2.25,2.64-3.42,1.19-1.67,2.32-3.47,3.24-5.3,1.19-2.35.68-5.25-1.83-6.43-2.21-1.04-5.03-.51-7.13.52-1.45.71-2.8,1.66-4.3,2.27-1.6.65-3.37,1.03-5.06,1.37-1.47.29-3.56.09-4.96-.41-1.59-.57-3.43-.77-5.19-.8l1.06,2.56c5.6-5.6,11.13-11.26,16.79-16.79,3.09-3.02,7.79-3.99,11.77-2.19,1.75.79,3.02,2.07,4.34,3.39,3.5,3.5,7.01,7.01,10.51,10.51,2.92,2.92,5.84,5.84,8.75,8.75,1.37,1.37,3.49-.75,2.12-2.12-6.29-6.29-12.59-12.59-18.88-18.88-1.13-1.13-2.22-2.29-3.54-3.21-4.07-2.84-9.6-3.06-13.96-.78-1.83.96-3.23,2.4-4.67,3.84l-5.28,5.28c-3.36,3.36-6.72,6.72-10.08,10.08-.93.93-.23,2.54,1.06,2.56,1.51.02,3.61.05,4.98.77-.13-.07-1.34-.31-.37-.04.44.12.92.18,1.38.26.89.15,1.8.28,2.7.32,1.37.06,2.7-.29,4.02-.61,1.52-.37,2.99-.79,4.41-1.44,2.37-1.08,4.29-2.83,7.03-2.74.93.03,2.05.43,2.01,1.55-.04,1-1,2.14-1.49,3.02-1.17,2.14-2.66,4.11-4.2,5.99-1.36,1.66-4.61,4.19-1.6,5.94,1.18.69,2.35,1.39,3.53,2.09,1.74,1.05,2.93.95,4.61-.13,2.74-1.75,5.67-3.16,8.47-4.8,3.06-1.79,6.09-3.65,9.18-5.39,1.34-.76,2.78-1.42,4.32-1.61,1.83-.22,3.5.56,5.31.49,1.92-.08,1.93-3.08,0-3Z"/>
      </g>
      <g>
        <path class="cls-25" d="m355.65,250.65v52.54c-5.17-.6-10.36-.89-15.55-.87-6.47.02-12.94.51-19.36,1.49v-53.16c2.95,0,5.89,0,8.83.01h10.53c3.51,0,7.03-.01,10.54-.01h5.01Z"/>
        <path class="cls-39" d="m354.15,250.65v17.8c0,9.41,0,18.82,0,28.23v6.51l1.5-1.5c-11.75-1.34-23.61-1.09-35.31.67l1.9,1.45v-17.97c0-9.54,0-19.09,0-28.63v-6.56l-1.5,1.5c9.97,0,19.94,0,29.92,0,1.66,0,3.33,0,4.99,0,1.93,0,1.93-3,0-3-8.37,0-16.74.01-25.11.01-3.27,0-6.53,0-9.8-.01-.81,0-1.5.69-1.5,1.5v17.97c0,9.54,0,19.09,0,28.63v6.56c0,1.07.95,1.59,1.9,1.45,11.41-1.72,23.05-1.88,34.51-.57.81.09,1.5-.76,1.5-1.5v-52.54c0-1.93-3-1.93-3,0Z"/>
      </g>
      <path class="cls-10" d="m355.91,236.37v14.26c-.08.02-.17.02-.26.02h-34.91v-14.28h35.17Z"/>
      <path class="cls-17" d="m355.91,250.63v.02h-.26c.09,0,.18,0,.26-.02Z"/>
      <path class="cls-10" d="m406.1,169.01l-11.36,7.89-20.48-29.79v-.02s-.07-.11-.07-.11c-.05-.08-.1-.16-.15-.25-.04-.07-.1-.13-.16-.19l-.09-.13,14.1-8.49,17.64,30.12-.18.1c.18.33.42.63.75.87Z"/>
      <path class="cls-17" d="m374.04,146.73c.05.09.1.17.15.25l-.31-.44c.06.06.12.12.16.19Z"/>
      <path class="cls-17" d="m406.1,169.01c-.33-.24-.57-.54-.75-.87l.18-.1.57.97Z"/>
    </g>
    <rect class="cls-19" x="255.51" y="58.2" width="167.56" height="267.57"/>
    <line class="cls-19" x1="263.07" y1="160.41" x2="263.07" y2="115.23"/>
  </g>
</svg>